<svg width="471" height="348" viewBox="0 0 471 348" fill="none" xmlns="http://www.w3.org/2000/svg">
<g clip-path="url(#clip0_1_38430)">
<path d="M471 0.5H160.619V218.11H471V0.5Z" fill="#D8D9FD"/>
<path d="M432.018 21.0847H192.245V76.2224H432.018V21.0847Z" fill="#EFB22E"/>
<path d="M432.018 90.9258H315.809V185.763H432.018V90.9258Z" fill="#E4A111"/>
<path d="M451.428 217.596L349.929 49.4918C349.679 49.1977 160.597 160.069 160.597 160.069V218.147L451.428 217.596Z" fill="#F9D37D"/>
<path d="M315.809 185.763V90.9258H379.062L432.018 185.763H315.809Z" fill="#E4A111"/>
<path d="M366.11 76.2519L349.76 49.1682L303.571 76.2519H366.11Z" fill="#E4A111"/>
<path d="M327.305 60.6516L368.148 123.575C370.52 125.678 373.46 127.035 376.6 127.474C379.741 127.914 382.941 127.416 385.8 126.045C396.251 121.362 392.338 109.614 392.338 109.614L353.621 44.919C353.621 44.919 346.347 42.0812 337.176 48.808C328.004 55.5348 327.305 60.6516 327.305 60.6516Z" fill="#6C5AE0"/>
<path d="M392.559 110.29C392.456 109.864 392.368 109.614 392.368 109.614L353.651 44.9188C353.651 44.9188 346.936 42.309 338.264 48.0654C337.891 48.7025 337.555 49.3603 337.257 50.0356C335.543 54.0276 335.477 59.3135 338.823 62.085C341.567 64.3567 345.501 64.1435 349.061 64.2905C352.621 64.4376 356.784 65.4889 358.042 68.8118C359.138 71.7084 357.49 74.8182 356.321 77.6853C355.151 80.5525 354.732 84.4636 357.314 86.1692C359.145 87.3749 361.653 86.8382 363.646 87.7572C367.427 89.4995 367.147 94.8957 366.265 98.9685C365.382 103.041 365.125 108.445 368.92 110.165C371.685 111.422 374.804 109.761 377.687 108.812C380.138 108.044 382.718 107.779 385.274 108.033C387.83 108.287 390.308 109.054 392.559 110.29V110.29Z" fill="#F9D37D"/>
<path d="M390.102 111.658C389.014 109.805 383.681 110.599 380.754 111.952C377.817 113.331 375.195 115.301 373.053 117.738C371.281 119.73 371.854 122.715 372.318 123.237C373.399 124.42 376.657 123.435 377.687 123.134C380.394 122.429 382.948 121.23 385.219 119.598C387.749 117.796 391.103 113.363 390.102 111.658Z" fill="#261D5D"/>
<path d="M370.442 124.714C358.772 108.678 347.573 92.3154 336.845 75.627C333.849 70.9612 330.89 66.2683 327.967 61.5486C327.276 60.4237 325.496 61.4603 326.195 62.5851C336.634 79.445 347.561 95.9888 358.976 112.216C362.168 116.755 365.399 121.266 368.67 125.751C369.435 126.81 371.222 125.78 370.442 124.714Z" fill="black"/>
<path d="M390.271 111.805C389.685 112.532 389.179 113.321 388.764 114.157C388.239 114.967 387.664 115.743 387.043 116.48C385.796 117.959 384.33 119.239 382.696 120.274C381.061 121.3 379.251 122.015 377.356 122.384C375.753 122.693 373.539 122.95 372.355 121.575C371.487 120.568 370.038 122.031 370.884 123.045C372.237 124.619 374.451 124.81 376.393 124.604C378.681 124.356 380.896 123.653 382.909 122.538C384.843 121.456 386.583 120.06 388.058 118.407C388.784 117.596 389.457 116.739 390.073 115.841C390.691 114.951 391.603 113.812 391.787 112.738C391.829 112.547 391.811 112.348 391.735 112.167C391.659 111.987 391.529 111.835 391.362 111.732C391.195 111.629 391.001 111.581 390.805 111.594C390.61 111.607 390.423 111.681 390.271 111.805V111.805Z" fill="black"/>
<path d="M382.254 116.87C380.783 115.51 378.628 117.686 380.048 119.075C381.181 120.149 383.343 122.148 381.968 123.766C380.434 125.366 378.576 126.619 376.518 127.442C374.52 128.348 372.369 128.872 370.178 128.986C369.141 129.075 368.098 128.919 367.133 128.53C366.188 128.01 365.37 127.29 364.735 126.42C361.44 122.509 358.299 118.451 355.173 114.385C352.047 110.32 349.289 106.188 346.215 102.218C344.641 100.196 342.537 98.4466 339.89 98.2996C338.672 98.244 337.47 98.5845 336.462 99.27C335.537 100.031 334.572 100.743 333.572 101.402C331.814 102.321 333.358 104.879 335.109 104.034C336.992 103.137 338.272 100.814 340.618 101.542C342.824 102.218 344.133 104.534 345.391 106.291C348.544 110.702 351.785 115.047 355.115 119.325C356.84 121.555 358.593 123.761 360.373 125.942C361.844 127.773 363.315 130.007 365.456 131.088C367.596 132.169 370.288 132.139 372.715 131.72C375.059 131.308 377.32 130.516 379.408 129.375C380.598 128.723 381.726 127.962 382.777 127.104C383.901 126.339 384.773 125.26 385.285 124.001C386.219 121.222 384.145 118.656 382.254 116.87Z" fill="#4839A3"/>
<path d="M307.895 116.907L328.144 101.211C329.107 100.476 330.152 99.6818 331.373 99.6156C333.505 99.5053 335.05 101.549 336.183 103.365C337.036 104.732 337.918 106.357 337.374 107.872C336.895 108.86 336.125 109.678 335.168 110.217C330.049 113.755 324.817 117.127 319.472 120.333C317.926 121.36 316.236 122.15 314.456 122.678C313.569 122.937 312.637 123.005 311.722 122.879C310.807 122.752 309.929 122.433 309.146 121.943C307.653 120.862 306.248 118.186 307.895 116.907Z" fill="black"/>
<path d="M345.383 16.1875L341.258 20.3098L345.383 24.4322L349.507 20.3098L345.383 16.1875Z" fill="#6C5AE0"/>
<path d="M46.7678 183.07L42.6436 187.192L46.7678 191.314L50.892 187.192L46.7678 183.07Z" fill="#6C5AE0"/>
<path d="M387.12 57.9082L382.996 62.0305L387.12 66.1529L391.244 62.0305L387.12 57.9082Z" fill="#6C5AE0"/>
<path d="M381.068 27.0319L376.944 31.1543L381.068 35.2767L385.192 31.1543L381.068 27.0319Z" fill="#F5CE7A"/>
<path d="M33.1718 105.178L29.0476 109.301L33.1718 113.423L37.2961 109.301L33.1718 105.178Z" fill="#F5CE7A"/>
<path d="M25.0803 227.955L20.9561 232.078L25.0803 236.2L29.2046 232.078L25.0803 227.955Z" fill="#F5CE7A"/>
<path d="M173.821 139.425C176.296 134.511 177.294 128.985 176.697 123.516C176.891 123.361 177.103 123.23 177.329 123.126C171.556 117.267 164.487 112.845 156.691 110.217C153.337 109.092 149.623 108.32 146.306 109.548C143.445 110.606 141.26 113.047 139.87 115.76C138.48 118.473 137.796 121.494 136.884 124.847C143.557 133.669 153.178 139.803 163.995 142.13C165.84 142.616 167.767 142.709 169.651 142.402C170.596 142.242 171.486 141.843 172.235 141.243C172.984 140.644 173.568 139.864 173.931 138.977C173.931 138.94 173.931 138.896 173.821 139.425Z" fill="#FABE9A"/>
<path d="M156.691 110.217C153.337 109.092 149.623 108.32 146.306 109.548C143.445 110.606 141.26 113.047 139.87 115.76C138.48 118.473 137.796 121.494 136.884 124.847C138.228 126.635 139.703 128.32 141.297 129.89C148.886 126.885 155.682 122.173 161.156 116.12C162.015 115.165 162.8 114.145 163.502 113.069C161.302 111.957 159.026 111.004 156.691 110.217V110.217Z" fill="#D79B78"/>
<path d="M147.828 105.195C147.249 106.132 146.953 107.216 146.977 108.317C147 109.418 147.342 110.489 147.961 111.4C149.238 113.22 151.124 114.524 153.278 115.076C155.448 115.658 157.704 115.855 159.942 115.657C160.736 120.23 163.862 124.214 167.819 126.64C171.87 128.974 176.48 130.161 181.154 130.074C183.088 130.074 185.17 129.882 186.648 128.603C188.467 126.886 189.584 124.554 189.781 122.06C190.038 118.224 189.937 114.372 189.48 110.555C189.255 106.693 187.961 102.969 185.743 99.7992C184.647 98.3289 183.294 97.057 182.485 95.3882C181.264 92.918 181.463 90.0215 181.139 87.3014C180.345 80.4275 175.902 74.0683 169.768 71.5981C164.892 71.0835 160.376 74.2153 157.015 77.7809C151.844 83.2712 148.229 90.0387 146.541 97.3879C145.865 100.446 145.563 103.843 147.828 105.195Z" fill="#FFD2B8"/>
<path d="M169.783 71.6204C164.907 71.1057 160.391 74.2376 157.029 77.8031C151.859 83.2934 148.244 90.0609 146.556 97.4101C146.446 97.8806 146.35 98.3658 146.269 98.8804C148.75 102.185 151.653 105.151 154.904 107.702C156.478 109.077 158.325 110.102 160.324 110.709C162.347 111.217 164.693 110.871 166.15 109.386C167.724 107.783 167.922 105.298 167.724 103.056C167.525 100.814 166.988 98.557 167.488 96.3662C168.275 92.7785 171.6 89.9481 171.636 86.2796C171.636 84.8093 171.1 83.339 170.901 81.8686C170.702 80.3983 170.975 78.6559 172.203 77.7958C173.277 77.0606 174.718 77.2003 175.954 76.7739C176.116 76.7151 176.27 76.6342 176.432 76.5607C174.644 74.4048 172.364 72.7104 169.783 71.6204V71.6204Z" fill="#FDBD9C"/>
<path d="M191.488 101.725C191.039 101.453 190.561 101.24 190.12 100.99C189.678 100.74 189.215 100.409 188.752 100.13C187.817 99.5714 186.898 98.9318 186.023 98.2848C185.944 98.2225 185.851 98.181 185.752 98.1643C185.653 98.1476 185.551 98.1562 185.457 98.1893C185.258 98.1957 185.066 98.2595 184.904 98.3731C184.741 98.4867 184.615 98.6451 184.541 98.829C184.467 99.0129 184.448 99.2144 184.487 99.4088C184.525 99.6033 184.619 99.7824 184.758 99.9243C185.861 100.961 186.81 102.483 186.273 104.049C185.971 104.923 185.412 105.6 185.537 106.585C185.619 107.01 185.819 107.403 186.114 107.719C186.41 108.035 186.789 108.261 187.207 108.371C187.61 108.502 188.035 108.548 188.456 108.507C188.877 108.467 189.286 108.341 189.656 108.136C190.057 107.912 190.428 107.638 190.759 107.32C191.083 107.041 191.429 106.783 191.738 106.482C192.431 105.827 192.842 104.928 192.885 103.975C192.877 103.509 192.743 103.053 192.497 102.657C192.251 102.261 191.902 101.939 191.488 101.725Z" fill="#A2605F"/>
<path d="M189.95 118.09C189.458 117.238 188.148 117.546 187.428 117.436C186.729 117.326 186.051 117.115 185.412 116.811C183.926 116.062 182.615 115.007 181.566 113.716C180.955 112.981 179.749 113.782 179.962 114.576C179.936 115.309 180.134 116.032 180.529 116.649C180.895 117.308 181.367 117.902 181.926 118.406C183.095 119.434 184.512 120.138 186.038 120.45C186.81 120.612 188.921 121.119 189.649 120.788C190.083 120.59 190.509 119.061 189.95 118.09Z" fill="#A2605F"/>
<path d="M179.955 89.1836C179.883 88.9384 179.718 88.7308 179.496 88.6046C179.274 88.4784 179.011 88.4435 178.763 88.5072C177.249 88.7934 175.77 89.2394 174.35 89.8379C173.641 90.1289 172.95 90.4654 172.284 90.8451C171.548 91.2568 170.732 91.7199 170.71 92.6462C170.716 92.8626 170.791 93.0714 170.923 93.243C171.055 93.4146 171.238 93.5402 171.445 93.602C173.019 94.2195 174.799 93.6828 176.3 93.1094C177.091 92.862 177.836 92.487 178.506 91.9993C179.104 91.5135 179.557 90.8726 179.815 90.1467C179.843 90.0684 179.86 89.9868 179.867 89.904C179.987 89.6839 180.018 89.4262 179.955 89.1836Z" fill="black"/>
<path d="M182.198 98.4392C182.213 98.3348 182.2 98.2284 182.161 98.1304C182.216 97.6924 182.138 97.2481 181.938 96.8549C181.737 96.4617 181.423 96.1378 181.036 95.9249C180.774 95.8578 180.5 95.8514 180.235 95.9062C179.97 95.961 179.72 96.0755 179.506 96.241C179.087 96.4876 178.697 96.7811 178.344 97.1159C177.652 97.778 177.057 98.5355 176.579 99.3655C176.461 99.5566 176.351 99.7551 176.241 99.9463C176.06 100.186 175.959 100.477 175.954 100.777C176.027 101.35 176.756 101.512 177.234 101.593C177.821 101.678 178.418 101.678 179.006 101.593C179.643 101.632 180.279 101.49 180.838 101.181C181.348 100.828 181.719 100.308 181.889 99.711C182.07 99.3553 182.165 98.9628 182.169 98.5641C182.176 98.5421 182.191 98.4906 182.198 98.4392Z" fill="#D0E7E6"/>
<path d="M181.132 95.3958C181.071 95.3378 180.997 95.2971 180.915 95.2777C180.834 95.2583 180.748 95.261 180.668 95.2855C180.475 95.1986 180.256 95.1826 180.052 95.2404C179.848 95.2982 179.67 95.4261 179.55 95.6016C178.949 96.5818 178.717 97.7445 178.896 98.8805C179.021 99.8141 179.536 101.307 180.735 101.189C181.04 101.119 181.323 100.971 181.555 100.76C181.787 100.548 181.96 100.281 182.059 99.9832C182.289 99.4673 182.409 98.9089 182.412 98.3438C182.416 97.7904 182.304 97.2422 182.083 96.7345C181.863 96.2269 181.539 95.7708 181.132 95.3958V95.3958Z" fill="#261D5D"/>
<path d="M181.595 94.2855C181.451 94.0582 181.226 93.894 180.965 93.8258C180.704 93.7576 180.428 93.7905 180.19 93.9179C177.493 95.1894 175.406 97.4713 174.38 100.27C174.344 100.401 174.335 100.538 174.353 100.673C174.371 100.808 174.415 100.938 174.484 101.055C174.552 101.173 174.643 101.276 174.752 101.358C174.86 101.44 174.984 101.5 175.115 101.534C175.38 101.6 175.659 101.559 175.894 101.422C176.129 101.285 176.301 101.061 176.373 100.799C176.41 100.718 176.439 100.637 176.469 100.556V100.512C176.535 100.38 176.594 100.248 176.66 100.123C176.8 99.8332 176.955 99.551 177.123 99.2773C177.285 99.02 177.462 98.7626 177.645 98.5421C177.675 98.5145 177.7 98.4822 177.719 98.4465L177.888 98.248C177.991 98.1231 178.102 98.0054 178.212 97.8878C178.432 97.6525 178.661 97.432 178.903 97.2188L179.271 96.91L179.447 96.7777C179.981 96.3985 180.55 96.0711 181.146 95.7999C181.284 95.7391 181.406 95.6492 181.506 95.5363C181.605 95.4235 181.678 95.2904 181.721 95.1464C181.764 95.0023 181.775 94.8507 181.753 94.7021C181.731 94.5534 181.677 94.4113 181.595 94.2855V94.2855Z" fill="black"/>
<path d="M41.3866 55.2996H65.2389L117.768 156.694L103.551 174.515L41.3866 55.2996Z" fill="black"/>
<path d="M77.0437 120.428H26.2059V122.634H77.0437V120.428Z" fill="black"/>
<path d="M85.0018 127.897H21.3884V130.103H85.0018V127.897Z" fill="black"/>
<path d="M97.5274 158.48H25.4851V160.686H97.5274V158.48Z" fill="black"/>
<path d="M96.5639 164.987H21.8664V167.192H96.5639V164.987Z" fill="black"/>
<path d="M26.2204 207.628L26.2004 209.834L52.9421 210.076L52.9622 207.871L26.2204 207.628Z" fill="black"/>
<path d="M21.8854 215.792L21.8342 217.997L52.9154 218.718L52.9666 216.513L21.8854 215.792Z" fill="black"/>
<path d="M121.6 82.6406C120.337 87.0749 120.158 91.748 121.08 96.2658C122.001 100.784 123.996 105.014 126.896 108.599C128.801 110.908 131.059 112.9 133.082 115.098C135.264 117.324 136.923 120.009 137.936 122.957C142.253 122.957 146.225 120.303 148.851 116.877C151.476 113.452 152.977 109.327 154.087 105.497L161.516 104.872C161.996 104.864 162.468 104.751 162.899 104.541C164.098 103.843 163.899 102.093 163.737 100.711C163.508 98.645 163.718 96.5539 164.351 94.5741C164.985 92.5943 166.029 90.7701 167.415 89.2203C167.938 88.7634 168.325 88.1706 168.533 87.5074C168.753 86.2503 167.569 85.2578 166.679 84.3462C165.833 83.4696 165.171 82.4325 164.733 81.2961C164.295 80.1597 164.089 78.947 164.127 77.7296C164.182 76.462 164.516 75.2222 165.106 74.0988C165.696 72.9754 166.527 71.996 167.54 71.2307C165.577 68.892 162.951 67.2028 160.008 66.386C157.081 65.5738 154.035 65.2778 151.006 65.5111C142.157 66.0088 133.685 69.2548 126.771 74.7963C124.256 76.8254 121.917 79.2073 120.835 82.273C121.057 82.4546 121.32 82.5807 121.6 82.6406Z" fill="#1D1B17"/>
<path d="M174.255 59.5121C173.264 57.3623 171.514 55.6532 169.342 54.7114C168.324 54.2976 167.228 54.1103 166.131 54.1623C165.034 54.2144 163.961 54.5046 162.987 55.0129C161.793 55.6259 160.768 56.522 160.001 57.6227C158.62 57.8487 157.215 57.8882 155.823 57.7403C154.551 57.5124 153.293 56.8655 152.028 57.1228C150.263 57.483 149.086 59.4827 147.321 59.6444C145.703 59.7841 144.166 58.3432 142.606 58.7769C141.047 59.2107 140.4 61.1515 138.855 61.4309C137.73 61.6367 136.649 60.828 135.479 60.9677C134.472 61.0927 133.721 61.9161 132.942 62.5777C131.11 64.151 128.764 64.9891 126.8 66.3859C122.306 69.5692 120.247 75.4873 120.843 80.957C121.071 83.0743 121.711 85.2577 123.255 86.7354C124.601 87.9177 126.306 88.614 128.095 88.713C132.243 89.0659 136.281 87.1839 139.701 84.8093C143.121 82.4347 146.188 79.5455 149.792 77.4576C154.686 74.6213 160.339 73.3705 165.973 73.8773C167.234 74.0655 168.509 74.1369 169.783 74.0905C170.008 74.0681 170.232 74.0313 170.452 73.9802L170.408 74.0758C172.129 74.4287 173.872 72.973 174.233 71.2969C174.233 71.2086 174.233 71.1131 174.27 71.0248C174.865 69.8804 175.237 68.6328 175.365 67.349C175.735 64.6843 175.35 61.9694 174.255 59.5121ZM174.424 66.1286C174.393 66.9757 174.279 67.8177 174.086 68.6429C173.857 67.8435 173.547 67.0698 173.159 66.3345C172.026 63.993 170.415 61.9145 168.43 60.2326C166.436 58.558 163.935 57.6048 161.332 57.5271C162.181 56.559 163.284 55.8471 164.515 55.4717C165.747 55.0963 167.06 55.0723 168.305 55.4025C170.285 56.0531 171.949 57.4225 172.968 59.2401C174.11 61.3547 174.616 63.7549 174.424 66.1507V66.1286Z" fill="black"/>
<path d="M267.296 154.283C276.99 136.315 307.233 109.283 311.735 111.224C313.47 111.959 309.756 116.201 310.874 117.841C312.507 120.215 316.552 116.87 319.421 116.576C320.273 116.395 321.162 116.506 321.943 116.892C323.01 117.576 323.15 119.171 322.591 120.311C322.032 121.45 320.958 122.244 319.457 123.42C321.061 123.215 322.289 125.111 322.046 126.707C321.804 128.302 320.627 129.581 319.259 131.25C320.046 131.603 321.186 131.559 321.62 132.301C323.253 135.095 319.855 138.616 317.133 141.337C317.928 145.645 314.132 149.512 310.124 151.291C306.115 153.07 301.592 153.68 297.907 156.055C293.362 158.995 290.817 164.141 288.912 169.244C287.007 174.346 285.455 179.654 282.344 183.947C272.555 177.25 266.693 165.2 267.84 153.393C267.84 153.482 267.84 153.562 267.296 154.283Z" fill="#FFD2B8"/>
<path d="M272.532 146.167C278.381 145.794 283.853 143.157 287.787 138.815C292.126 134.088 294.561 127.89 295.598 121.531C287.816 128.339 278.88 137.609 272.532 146.167Z" fill="#FFBA95"/>
<path d="M320.053 116.51C319.84 116.51 319.627 116.51 319.421 116.561C316.552 116.855 312.507 120.237 310.874 117.826C309.852 116.355 312.897 112.635 312.044 111.474C309.419 113.218 307.169 115.467 305.424 118.09C304.905 118.804 304.546 119.622 304.372 120.487C304.294 120.921 304.335 121.368 304.491 121.781C304.646 122.194 304.91 122.557 305.255 122.832C306.086 123.406 307.219 123.2 308.197 122.928C312.385 121.747 316.273 119.69 319.605 116.892L320.053 116.51Z" fill="#FFBA95"/>
<path d="M322.591 120.296C322.872 119.709 322.972 119.051 322.878 118.406C321.989 119.695 320.881 120.817 319.605 121.722C317.523 123.244 315.192 124.42 313.287 126.17C312.764 126.648 312.242 127.339 312.492 128C312.801 128.846 313.963 128.839 314.853 128.611C317.409 127.919 319.757 126.614 321.693 124.81C321.508 124.376 321.192 124.011 320.791 123.763C320.389 123.516 319.921 123.399 319.45 123.428C320.958 122.229 322.032 121.443 322.591 120.296Z" fill="#FFBA95"/>
<path d="M316.427 133.382C315.902 133.683 315.436 134.076 315.052 134.544C314.864 134.78 314.753 135.068 314.735 135.369C314.716 135.67 314.791 135.97 314.949 136.227C315.574 137.065 316.898 136.595 317.751 135.992C319.21 134.952 320.517 133.715 321.635 132.316C321.635 132.316 321.635 132.316 321.635 132.316C321.201 131.581 320.061 131.581 319.274 131.265L319.81 130.61C318.776 131.643 317.643 132.571 316.427 133.382V133.382Z" fill="#FFBA95"/>
<path d="M315.03 140.998C314.396 141.272 313.84 141.699 313.412 142.241C313.207 142.517 313.117 142.861 313.16 143.201C313.202 143.542 313.374 143.854 313.64 144.071C313.871 144.173 314.122 144.225 314.375 144.225C314.628 144.225 314.879 144.173 315.111 144.071C315.817 143.838 316.505 143.553 317.17 143.218C317.248 142.592 317.231 141.958 317.119 141.336C318.818 139.638 320.796 137.661 321.62 135.668C319.738 137.802 317.51 139.604 315.03 140.998Z" fill="#FFBA95"/>
<path d="M290.567 158.517C286.639 161.09 281.285 160.48 277.173 158.223C274.104 156.383 271.368 154.037 269.083 151.283C268.441 152.303 267.855 153.302 267.325 154.283C267.788 153.672 267.855 153.548 267.869 153.437C266.737 165.2 272.591 177.257 282.373 183.947C285.485 179.639 287.037 174.294 288.942 169.243C290.846 164.193 293.391 158.995 297.937 156.054C298.187 155.893 298.452 155.76 298.709 155.613C298.265 155.327 297.762 155.144 297.238 155.077C294.649 154.761 292.707 157.12 290.567 158.517Z" fill="#FFBA95"/>
<path d="M69.7917 196.82C68.3722 193.982 64.4519 193.188 61.4585 194.261C58.465 195.335 56.1923 197.746 54.0372 200.084C52.0367 202.289 49.9846 204.495 48.9917 207.303C47.9988 210.112 48.3298 213.567 50.323 215.545C57.5546 210.123 64.093 203.834 69.7917 196.82V196.82Z" fill="#FFD3B5"/>
<path d="M50.22 215.427L50.323 215.544C57.5545 210.123 64.093 203.834 69.7917 196.82C69.692 196.626 69.5789 196.439 69.4533 196.261C65.0497 197.872 61.0489 200.42 57.7279 203.73C54.407 207.039 51.8452 211.03 50.22 215.427V215.427Z" fill="#FFBA95"/>
<path d="M290.979 183.476C290.915 182.244 290.575 181.041 289.983 179.958C289.391 178.875 288.562 177.939 287.559 177.22C281.241 176.139 276.526 171.427 273.805 166.045C271.084 160.664 270.091 154.606 269.112 148.659C268.944 148.096 268.582 147.611 268.091 147.289C267.6 146.966 267.011 146.826 266.428 146.894C265.405 147.114 264.452 147.584 263.655 148.262C261.294 149.96 258.889 151.688 257.072 153.967C255.256 156.246 254.049 159.164 254.461 162.054C254.093 160.716 253.255 160.348 252.622 160.532C252.008 160.788 251.484 161.22 251.115 161.774C249.305 164.004 247.494 166.234 245.679 168.464C243.576 170.581 243.024 173.61 244.267 175.816C237.309 177.755 231.028 181.588 226.122 186.888C216.391 171.312 204.223 157.398 190.083 145.674C188.353 144.076 186.379 142.766 184.236 141.792C182.029 140.925 179.47 140.763 177.41 141.903C178.219 137.969 175.564 135.536 172.791 134.918C170.018 134.301 167.157 134.918 164.333 135.161C159.095 135.515 153.856 134.478 149.149 132.153C144.441 129.829 140.433 126.301 137.531 121.928C132.787 125.56 128.492 129.28 124.197 132.956L125.528 134.793C116.687 137.234 109.251 143.343 103.367 150.394C97.395 157.598 92.8496 165.832 87.7673 173.706C77.1955 190.061 64.246 204.752 49.3447 217.294C51.1481 227.806 56.4105 237.415 64.2975 244.598C67.6955 247.671 71.8364 250.355 76.4112 250.406C83.3028 250.494 88.7308 244.834 93.21 239.607C93.267 247.39 95.3833 255.019 99.3441 261.72C132.53 263.566 165.797 263.97 199.328 262.522C199.642 254.263 199.961 246.007 200.284 237.754C204.087 242.768 207.801 247.613 212.677 251.09C217.554 254.567 223.769 256.53 229.594 255.251C235.596 253.928 240.354 249.487 244.782 245.231C251.401 238.864 258.021 232.475 263.706 225.241C269.392 218.007 274.04 209.854 276.21 200.937C277.764 201.443 279.424 201.531 281.022 201.191C282.621 200.852 284.102 200.097 285.315 199.003C287.662 196.878 288.919 193.82 289.853 190.791C290.705 188.45 291.087 185.965 290.979 183.476V183.476Z" fill="#D8D9FD"/>
<path d="M137.531 121.994C132.787 125.626 128.492 129.346 124.197 133.022L125.528 134.86L125.145 134.963C127.636 137.763 130.476 140.231 133.596 142.307C135.972 137.139 139.343 132.489 143.518 128.625C141.183 126.746 139.163 124.508 137.531 121.994Z" fill="#4839A3"/>
<path d="M137.531 121.994C132.787 125.626 128.492 129.346 124.197 133.022L125.528 134.86L125.145 134.963C127.636 137.763 130.476 140.231 133.596 142.307C135.972 137.139 139.343 132.489 143.518 128.625C141.183 126.746 139.163 124.508 137.531 121.994Z" fill="#4839A3"/>
<path d="M212.957 212.494C216.363 203.494 220.782 194.91 226.13 186.91V186.91C216.398 171.334 204.23 157.42 190.09 145.696C188.361 144.099 186.387 142.788 184.243 141.814C182.359 141.005 180.245 140.906 178.293 141.535C176.209 144.109 173.601 146.211 170.644 147.703C189.642 150.188 215.024 179.014 214.369 183.932C213.692 189.042 208.397 199.518 206.617 204.355C204.837 209.193 204.285 215.023 207.352 219.162C209.914 217.628 211.887 215.28 212.957 212.494V212.494Z" fill="#4839A3"/>
<path d="M254.373 165.377C257.05 171.383 262.375 175.794 267.965 179.264C273.555 182.734 279.593 185.506 284.845 189.461C285.287 189.739 285.648 190.129 285.889 190.593C285.998 190.828 286.017 191.094 285.942 191.342C285.868 191.59 285.705 191.802 285.485 191.938C285.195 192.027 284.885 192.027 284.595 191.938C277.73 190.861 271.173 188.335 265.361 184.528C259.544 180.692 255.04 175.168 252.453 168.7C252.156 168.031 252.005 167.307 252.012 166.575C252.017 166.21 252.123 165.854 252.318 165.545C252.512 165.236 252.788 164.987 253.115 164.825C253.279 164.752 253.457 164.717 253.636 164.722C253.816 164.728 253.991 164.774 254.15 164.856C254.309 164.939 254.448 165.056 254.555 165.2C254.662 165.344 254.736 165.509 254.77 165.685C254.77 165.774 254.77 165.869 254.373 165.377Z" fill="#F9D37D"/>
<path d="M266.582 177.529C266.765 176.971 266.817 176.378 266.734 175.797C266.651 175.216 266.436 174.661 266.104 174.176C265.432 173.218 264.652 172.34 263.78 171.559C259.594 167.309 256.776 161.904 255.689 156.04C254.636 157.863 254.195 159.976 254.432 162.068C254.064 160.73 253.226 160.363 252.593 160.546C252.505 160.579 252.419 160.619 252.336 160.664C253.411 164.309 255.233 167.69 257.685 170.593C260.138 173.497 263.168 175.858 266.582 177.529V177.529Z" fill="#4839A3"/>
<path d="M287.559 177.242C286.577 177.073 285.614 176.81 284.683 176.456C284.232 178.254 283.508 179.972 282.535 181.55C284.654 181.8 286.367 184.256 288.419 183.66C288.952 183.442 289.419 183.09 289.774 182.637C290.13 182.185 290.363 181.649 290.449 181.08C289.934 179.518 288.918 178.169 287.559 177.242V177.242Z" fill="#4839A3"/>
<path d="M263.706 225.205C269.259 218.118 273.856 210.134 276.092 201.415C268.306 196.884 261.038 191.517 254.417 185.41C257.565 204.046 253.63 222.94 248.768 241.342C254.109 236.308 259.1 230.917 263.706 225.205V225.205Z" fill="#4839A3"/>
<path d="M199.328 262.485L200.233 239.07C189.095 223.315 176.502 208.641 162.619 195.239C161.148 193.805 159.28 192.298 157.265 192.695C155.514 193.056 154.404 194.739 153.521 196.29C143.618 213.785 137.858 233.317 136.685 253.384C136.494 256.633 136.516 260.11 137.531 263.132C158.062 263.563 178.66 263.348 199.328 262.485Z" fill="#4839A3"/>
<path d="M89.1427 217.243C84.5973 222.33 79.5812 227.697 72.9617 229.182C67.1439 230.476 60.9436 228.447 56.1261 224.947C53.7129 223.147 51.5359 221.05 49.6463 218.706C51.6826 228.666 56.8341 237.72 64.3563 244.562C67.7543 247.635 71.8952 250.318 76.47 250.37C80.1475 250.414 83.3617 248.84 86.2669 246.576C87.4088 244.07 88.3914 241.494 89.2089 238.864L100.558 204.532C96.7282 208.766 92.9232 213.003 89.1427 217.243Z" fill="#4839A3"/>
<path d="M246.79 242.29C238.371 244.178 229.662 244.39 221.161 242.913C212.661 241.435 204.534 238.299 197.247 233.681C196.835 233.983 196.717 234.622 197.886 235.203L200.203 238.974L200.255 237.747C204.057 242.76 207.772 247.605 212.648 251.083C217.524 254.56 223.739 256.523 229.564 255.244C235.566 253.92 240.325 249.48 244.753 245.223L247.886 242.209C247.519 242.159 247.145 242.186 246.79 242.29V242.29Z" fill="#F9D37D"/>
<path d="M177.462 141.616C178.065 137.881 175.483 135.551 172.791 134.955C172.45 134.874 172.103 134.816 171.754 134.779C171.648 135.237 171.567 135.701 171.511 136.168C171.051 139.599 170.59 143.008 170.129 146.394C171.64 146.226 173.09 145.707 174.364 144.877C175.637 144.047 176.698 142.93 177.462 141.616Z" fill="#F9D37D"/>
<path d="M149.836 150.526C150.663 150.827 151.569 150.827 152.396 150.526C152.595 150.423 152.789 150.31 152.977 150.188C153.079 150.136 153.177 150.077 153.271 150.011C152.644 149.443 151.822 149.138 150.976 149.159C145.621 148.519 140.464 146.745 135.849 143.956C131.234 141.167 127.267 137.427 124.211 132.985V132.985L125.543 134.823C116.687 137.234 109.251 143.343 103.367 150.394C97.395 157.598 92.8496 165.832 87.7673 173.706C80.6387 184.718 72.4211 194.986 63.2384 204.355C65.8661 204.765 68.5565 204.36 70.9464 203.194C74.7122 201.466 77.7645 198.496 80.4564 195.342C90.5254 183.579 96.7257 168.376 108.803 158.642C114.488 154.169 121.149 151.099 128.245 149.684C135.34 148.268 142.67 148.547 149.638 150.497C149.705 150.491 149.773 150.501 149.836 150.526V150.526Z" fill="#F9D37D"/>
<path d="M290.199 270.307H226.211V335.737H290.199V270.307Z" fill="black"/>
<path d="M257.102 260.75H1.14738V347.5H257.102V260.75Z" fill="#6C5AE0"/>
<path d="M1.14738 347.5V260.75H174.726L201.204 304.125L174.726 347.5H1.14738Z" fill="#F2BF4E"/>
<path d="M291.302 336.84H225.107V269.204H291.302V336.84ZM227.314 334.634H289.096V271.41H227.314V334.634Z" fill="black"/>
<path d="M5.14329 147.044L1.01907 151.167L5.14329 155.289L9.26751 151.167L5.14329 147.044Z" fill="#6C5AE0"/>
<path d="M150.3 105.96C150.241 105.96 150.185 105.983 150.144 106.025C150.102 106.066 150.079 106.122 150.079 106.181C150.079 106.239 150.102 106.295 150.144 106.336C150.185 106.378 150.241 106.401 150.3 106.401C150.358 106.401 150.414 106.378 150.456 106.336C150.497 106.295 150.52 106.239 150.52 106.181C150.52 106.122 150.497 106.066 150.456 106.025C150.414 105.983 150.358 105.96 150.3 105.96V105.96Z" fill="#4839A3"/>
<path d="M26.3015 301.471C26.1064 301.471 25.9194 301.394 25.7814 301.256C25.6435 301.118 25.566 300.931 25.566 300.736C25.566 300.541 25.6435 300.354 25.7814 300.216C25.9194 300.078 26.1064 300.001 26.3015 300.001H26.6766C26.8717 300.001 27.0588 300.078 27.1967 300.216C27.3346 300.354 27.4121 300.541 27.4121 300.736C27.4121 300.931 27.3346 301.118 27.1967 301.256C27.0588 301.394 26.8717 301.471 26.6766 301.471H26.3015ZM32.5533 301.427C32.3582 301.427 32.1711 301.349 32.0332 301.212C31.8953 301.074 31.8178 300.887 31.8178 300.692C31.8178 300.497 31.8953 300.31 32.0332 300.172C32.1711 300.034 32.3582 299.957 32.5533 299.957H32.921C33.1161 299.957 33.3032 300.034 33.4411 300.172C33.579 300.31 33.6565 300.497 33.6565 300.692C33.6565 300.887 33.579 301.074 33.4411 301.212C33.3032 301.349 33.1161 301.427 32.921 301.427H32.5459H32.5533ZM38.805 301.383C38.61 301.383 38.4229 301.305 38.2849 301.167C38.147 301.03 38.0695 300.843 38.0695 300.648C38.0695 300.453 38.147 300.266 38.2849 300.128C38.4229 299.99 38.61 299.912 38.805 299.912H39.1728C39.3678 299.912 39.5549 299.99 39.6929 300.128C39.8308 300.266 39.9083 300.453 39.9083 300.648C39.9083 300.843 39.8308 301.03 39.6929 301.167C39.5549 301.305 39.3678 301.383 39.1728 301.383H38.7977H38.805ZM45.0568 301.339C44.8617 301.339 44.6746 301.261 44.5367 301.123C44.3988 300.986 44.3213 300.799 44.3213 300.604C44.3213 300.409 44.3988 300.222 44.5367 300.084C44.6746 299.946 44.8617 299.868 45.0568 299.868H45.4319C45.627 299.868 45.814 299.946 45.952 300.084C46.0899 300.222 46.1674 300.409 46.1674 300.604C46.1674 300.799 46.0899 300.986 45.952 301.123C45.814 301.261 45.627 301.339 45.4319 301.339H45.0568ZM51.3085 301.302C51.1135 301.302 50.9264 301.224 50.7885 301.087C50.6505 300.949 50.573 300.762 50.573 300.567C50.573 300.372 50.6505 300.185 50.7885 300.047C50.9264 299.909 51.1135 299.832 51.3085 299.832H51.6836C51.8787 299.832 52.0658 299.909 52.2037 300.047C52.3417 300.185 52.4191 300.372 52.4191 300.567C52.4191 300.762 52.3417 300.949 52.2037 301.087C52.0658 301.224 51.8787 301.302 51.6836 301.302H51.3085ZM57.5603 301.258C57.3652 301.258 57.1781 301.18 57.0402 301.043C56.9023 300.905 56.8248 300.718 56.8248 300.523C56.8248 300.328 56.9023 300.141 57.0402 300.003C57.1781 299.865 57.3652 299.787 57.5603 299.787H57.9354C58.1305 299.787 58.3175 299.865 58.4555 300.003C58.5934 300.141 58.6709 300.328 58.6709 300.523C58.6709 300.718 58.5934 300.905 58.4555 301.043C58.3175 301.18 58.1305 301.258 57.9354 301.258H57.5603ZM63.8121 301.214C63.617 301.214 63.4299 301.136 63.292 300.998C63.154 300.861 63.0766 300.674 63.0766 300.479C63.0766 300.284 63.154 300.097 63.292 299.959C63.4299 299.821 63.617 299.743 63.8121 299.743H64.1872C64.3822 299.743 64.5693 299.821 64.7072 299.959C64.8452 300.097 64.9227 300.284 64.9227 300.479C64.9227 300.674 64.8452 300.861 64.7072 300.998C64.5693 301.136 64.3822 301.214 64.1872 301.214H63.8121ZM70.0638 301.17C69.8687 301.17 69.6817 301.092 69.5437 300.954C69.4058 300.816 69.3283 300.629 69.3283 300.434C69.3283 300.239 69.4058 300.052 69.5437 299.915C69.6817 299.777 69.8687 299.699 70.0638 299.699H70.4389C70.634 299.699 70.8211 299.777 70.959 299.915C71.0969 300.052 71.1744 300.239 71.1744 300.434C71.1744 300.629 71.0969 300.816 70.959 300.954C70.8211 301.092 70.634 301.17 70.4389 301.17H70.0638ZM76.3156 301.126C76.1205 301.126 75.9334 301.048 75.7955 300.91C75.6576 300.772 75.5801 300.585 75.5801 300.39C75.5801 300.195 75.6576 300.008 75.7955 299.871C75.9334 299.733 76.1205 299.655 76.3156 299.655H76.6907C76.8857 299.655 77.0728 299.733 77.2107 299.871C77.3487 300.008 77.4262 300.195 77.4262 300.39C77.4262 300.585 77.3487 300.772 77.2107 300.91C77.0728 301.048 76.8857 301.126 76.6907 301.126H76.3156ZM82.5673 301.126C82.3723 301.126 82.1852 301.048 82.0472 300.91C81.9093 300.772 81.8318 300.585 81.8318 300.39C81.8318 300.195 81.9093 300.008 82.0472 299.871C82.1852 299.733 82.3723 299.655 82.5673 299.655H82.9351C83.1301 299.655 83.3172 299.733 83.4552 299.871C83.5931 300.008 83.6706 300.195 83.6706 300.39C83.6706 300.585 83.5931 300.772 83.4552 300.91C83.3172 301.048 83.1301 301.126 82.9351 301.126H82.56H82.5673ZM88.8191 301.081C88.624 301.081 88.4369 301.004 88.299 300.866C88.1611 300.728 88.0836 300.541 88.0836 300.346C88.0836 300.151 88.1611 299.964 88.299 299.826C88.4369 299.689 88.624 299.611 88.8191 299.611H89.1868C89.3819 299.611 89.569 299.689 89.7069 299.826C89.8448 299.964 89.9223 300.151 89.9223 300.346C89.9223 300.541 89.8448 300.728 89.7069 300.866C89.569 301.004 89.3819 301.081 89.1868 301.081H88.8117H88.8191ZM95.0708 301.037C94.8758 301.037 94.6887 300.96 94.5508 300.822C94.4128 300.684 94.3353 300.497 94.3353 300.302C94.3353 300.107 94.4128 299.92 94.5508 299.782C94.6887 299.644 94.8758 299.567 95.0708 299.567H95.4459C95.641 299.567 95.8281 299.644 95.966 299.782C96.1039 299.92 96.1814 300.107 96.1814 300.302C96.1814 300.497 96.1039 300.684 95.966 300.822C95.8281 300.96 95.641 301.037 95.4459 301.037H95.0708ZM101.323 300.993C101.128 300.993 100.94 300.916 100.803 300.778C100.665 300.64 100.587 300.453 100.587 300.258C100.587 300.063 100.665 299.876 100.803 299.738C100.94 299.6 101.128 299.523 101.323 299.523H101.698C101.893 299.523 102.08 299.6 102.218 299.738C102.356 299.876 102.433 300.063 102.433 300.258C102.433 300.453 102.356 300.64 102.218 300.778C102.08 300.916 101.893 300.993 101.698 300.993H101.323ZM107.574 300.949C107.379 300.949 107.192 300.872 107.054 300.734C106.916 300.596 106.839 300.409 106.839 300.214C106.839 300.019 106.916 299.832 107.054 299.694C107.192 299.556 107.379 299.479 107.574 299.479H107.949C108.145 299.479 108.332 299.556 108.47 299.694C108.607 299.832 108.685 300.019 108.685 300.214C108.685 300.409 108.607 300.596 108.47 300.734C108.332 300.872 108.145 300.949 107.949 300.949H107.574ZM113.826 300.905C113.631 300.905 113.444 300.828 113.306 300.69C113.168 300.552 113.091 300.365 113.091 300.17C113.091 299.975 113.168 299.788 113.306 299.65C113.444 299.512 113.631 299.435 113.826 299.435H114.201C114.396 299.435 114.583 299.512 114.721 299.65C114.859 299.788 114.937 299.975 114.937 300.17C114.937 300.365 114.859 300.552 114.721 300.69C114.583 300.828 114.396 300.905 114.201 300.905H113.826ZM120.078 300.868C119.883 300.868 119.696 300.791 119.558 300.653C119.42 300.515 119.342 300.328 119.342 300.133C119.342 299.938 119.42 299.751 119.558 299.613C119.696 299.475 119.883 299.398 120.078 299.398H120.453C120.648 299.398 120.835 299.475 120.973 299.613C121.111 299.751 121.188 299.938 121.188 300.133C121.188 300.328 121.111 300.515 120.973 300.653C120.835 300.791 120.648 300.868 120.453 300.868H120.078ZM126.33 300.824C126.135 300.824 125.947 300.747 125.81 300.609C125.672 300.471 125.594 300.284 125.594 300.089C125.594 299.894 125.672 299.707 125.81 299.569C125.947 299.431 126.135 299.354 126.33 299.354H126.705C126.9 299.354 127.087 299.431 127.225 299.569C127.363 299.707 127.44 299.894 127.44 300.089C127.44 300.284 127.363 300.471 127.225 300.609C127.087 300.747 126.9 300.824 126.705 300.824H126.33ZM132.581 300.78C132.386 300.78 132.199 300.703 132.061 300.565C131.923 300.427 131.846 300.24 131.846 300.045C131.846 299.85 131.923 299.663 132.061 299.525C132.199 299.387 132.386 299.31 132.581 299.31H132.956C133.152 299.31 133.339 299.387 133.477 299.525C133.614 299.663 133.692 299.85 133.692 300.045C133.692 300.24 133.614 300.427 133.477 300.565C133.339 300.703 133.152 300.78 132.956 300.78H132.581ZM138.833 300.736C138.638 300.736 138.451 300.658 138.313 300.521C138.175 300.383 138.098 300.196 138.098 300.001C138.098 299.806 138.175 299.619 138.313 299.481C138.451 299.343 138.638 299.266 138.833 299.266H139.208C139.403 299.266 139.59 299.343 139.728 299.481C139.866 299.619 139.944 299.806 139.944 300.001C139.944 300.196 139.866 300.383 139.728 300.521C139.59 300.658 139.403 300.736 139.208 300.736H138.833ZM145.085 300.692C144.89 300.692 144.703 300.614 144.565 300.476C144.427 300.339 144.349 300.152 144.349 299.957C144.349 299.762 144.427 299.575 144.565 299.437C144.703 299.299 144.89 299.221 145.085 299.221H145.46C145.655 299.221 145.842 299.299 145.98 299.437C146.118 299.575 146.196 299.762 146.196 299.957C146.196 300.152 146.118 300.339 145.98 300.476C145.842 300.614 145.655 300.692 145.46 300.692H145.085ZM151.337 300.655C151.142 300.655 150.954 300.578 150.817 300.44C150.679 300.302 150.601 300.115 150.601 299.92C150.601 299.725 150.679 299.538 150.817 299.4C150.954 299.262 151.142 299.185 151.337 299.185H151.712C151.907 299.185 152.094 299.262 152.232 299.4C152.37 299.538 152.447 299.725 152.447 299.92C152.447 300.115 152.37 300.302 152.232 300.44C152.094 300.578 151.907 300.655 151.712 300.655H151.337ZM157.588 300.611C157.393 300.611 157.206 300.533 157.068 300.396C156.93 300.258 156.853 300.071 156.853 299.876C156.853 299.681 156.93 299.494 157.068 299.356C157.206 299.218 157.393 299.141 157.588 299.141H157.956C158.151 299.141 158.338 299.218 158.476 299.356C158.614 299.494 158.692 299.681 158.692 299.876C158.692 300.071 158.614 300.258 158.476 300.396C158.338 300.533 158.151 300.611 157.956 300.611H157.588ZM163.84 300.567C163.645 300.567 163.458 300.489 163.32 300.351C163.182 300.214 163.105 300.027 163.105 299.832C163.105 299.637 163.182 299.45 163.32 299.312C163.458 299.174 163.645 299.096 163.84 299.096H164.215C164.41 299.096 164.597 299.174 164.735 299.312C164.873 299.45 164.951 299.637 164.951 299.832C164.951 300.027 164.873 300.214 164.735 300.351C164.597 300.489 164.41 300.567 164.215 300.567H163.84Z" fill="black"/>
<path d="M26.3015 314.704C26.1064 314.704 25.9194 314.627 25.7814 314.489C25.6435 314.351 25.566 314.164 25.566 313.969C25.566 313.774 25.6435 313.587 25.7814 313.449C25.9194 313.311 26.1064 313.234 26.3015 313.234H26.6766C26.8717 313.234 27.0588 313.311 27.1967 313.449C27.3346 313.587 27.4121 313.774 27.4121 313.969C27.4121 314.164 27.3346 314.351 27.1967 314.489C27.0588 314.627 26.8717 314.704 26.6766 314.704H26.3015ZM32.5533 314.66C32.3582 314.66 32.1711 314.583 32.0332 314.445C31.8953 314.307 31.8178 314.12 31.8178 313.925C31.8178 313.73 31.8953 313.543 32.0332 313.405C32.1711 313.267 32.3582 313.19 32.5533 313.19H32.921C33.1161 313.19 33.3032 313.267 33.4411 313.405C33.579 313.543 33.6565 313.73 33.6565 313.925C33.6565 314.12 33.579 314.307 33.4411 314.445C33.3032 314.583 33.1161 314.66 32.921 314.66H32.5459H32.5533ZM38.805 314.616C38.61 314.616 38.4229 314.539 38.2849 314.401C38.147 314.263 38.0695 314.076 38.0695 313.881C38.0695 313.686 38.147 313.499 38.2849 313.361C38.4229 313.223 38.61 313.146 38.805 313.146H39.1728C39.3678 313.146 39.5549 313.223 39.6929 313.361C39.8308 313.499 39.9083 313.686 39.9083 313.881C39.9083 314.076 39.8308 314.263 39.6929 314.401C39.5549 314.539 39.3678 314.616 39.1728 314.616H38.7977H38.805ZM45.0568 314.572C44.8617 314.572 44.6746 314.494 44.5367 314.357C44.3988 314.219 44.3213 314.032 44.3213 313.837C44.3213 313.642 44.3988 313.455 44.5367 313.317C44.6746 313.179 44.8617 313.102 45.0568 313.102H45.4319C45.627 313.102 45.814 313.179 45.952 313.317C46.0899 313.455 46.1674 313.642 46.1674 313.837C46.1674 314.032 46.0899 314.219 45.952 314.357C45.814 314.494 45.627 314.572 45.4319 314.572H45.0568ZM51.3085 314.535C51.1135 314.535 50.9264 314.458 50.7885 314.32C50.6505 314.182 50.573 313.995 50.573 313.8C50.573 313.605 50.6505 313.418 50.7885 313.28C50.9264 313.142 51.1135 313.065 51.3085 313.065H51.6836C51.8787 313.065 52.0658 313.142 52.2037 313.28C52.3417 313.418 52.4191 313.605 52.4191 313.8C52.4191 313.995 52.3417 314.182 52.2037 314.32C52.0658 314.458 51.8787 314.535 51.6836 314.535H51.3085ZM57.5603 314.491C57.3652 314.491 57.1781 314.414 57.0402 314.276C56.9023 314.138 56.8248 313.951 56.8248 313.756C56.8248 313.561 56.9023 313.374 57.0402 313.236C57.1781 313.098 57.3652 313.021 57.5603 313.021H57.9354C58.1305 313.021 58.3175 313.098 58.4555 313.236C58.5934 313.374 58.6709 313.561 58.6709 313.756C58.6709 313.951 58.5934 314.138 58.4555 314.276C58.3175 314.414 58.1305 314.491 57.9354 314.491H57.5603ZM63.8121 314.447C63.617 314.447 63.4299 314.369 63.292 314.232C63.154 314.094 63.0766 313.907 63.0766 313.712C63.0766 313.517 63.154 313.33 63.292 313.192C63.4299 313.054 63.617 312.977 63.8121 312.977H64.1872C64.3822 312.977 64.5693 313.054 64.7072 313.192C64.8452 313.33 64.9227 313.517 64.9227 313.712C64.9227 313.907 64.8452 314.094 64.7072 314.232C64.5693 314.369 64.3822 314.447 64.1872 314.447H63.8121ZM70.0638 314.403C69.8687 314.403 69.6817 314.325 69.5437 314.187C69.4058 314.05 69.3283 313.863 69.3283 313.668C69.3283 313.473 69.4058 313.286 69.5437 313.148C69.6817 313.01 69.8687 312.932 70.0638 312.932H70.4389C70.634 312.932 70.8211 313.01 70.959 313.148C71.0969 313.286 71.1744 313.473 71.1744 313.668C71.1744 313.863 71.0969 314.05 70.959 314.187C70.8211 314.325 70.634 314.403 70.4389 314.403H70.0638ZM76.3156 314.359C76.1205 314.359 75.9334 314.281 75.7955 314.143C75.6576 314.005 75.5801 313.818 75.5801 313.623C75.5801 313.429 75.6576 313.242 75.7955 313.104C75.9334 312.966 76.1205 312.888 76.3156 312.888H76.6907C76.8857 312.888 77.0728 312.966 77.2107 313.104C77.3487 313.242 77.4262 313.429 77.4262 313.623C77.4262 313.818 77.3487 314.005 77.2107 314.143C77.0728 314.281 76.8857 314.359 76.6907 314.359H76.3156ZM82.5673 314.359C82.3723 314.359 82.1852 314.281 82.0472 314.143C81.9093 314.005 81.8318 313.818 81.8318 313.623C81.8318 313.429 81.9093 313.242 82.0472 313.104C82.1852 312.966 82.3723 312.888 82.5673 312.888H82.9424C83.1375 312.888 83.3246 312.966 83.4625 313.104C83.6004 313.242 83.6779 313.429 83.6779 313.623C83.6779 313.818 83.6004 314.005 83.4625 314.143C83.3246 314.281 83.1375 314.359 82.9424 314.359H82.5673ZM88.8191 314.315C88.624 314.315 88.4369 314.237 88.299 314.099C88.1611 313.961 88.0836 313.774 88.0836 313.579C88.0836 313.384 88.1611 313.197 88.299 313.06C88.4369 312.922 88.624 312.844 88.8191 312.844H89.1942C89.3892 312.844 89.5763 312.922 89.7143 313.06C89.8522 313.197 89.9297 313.384 89.9297 313.579C89.9297 313.774 89.8522 313.961 89.7143 314.099C89.5763 314.237 89.3892 314.315 89.1942 314.315H88.8191ZM95.0708 314.27C94.8758 314.27 94.6887 314.193 94.5508 314.055C94.4128 313.917 94.3353 313.73 94.3353 313.535C94.3353 313.34 94.4128 313.153 94.5508 313.015C94.6887 312.878 94.8758 312.8 95.0708 312.8H95.4459C95.641 312.8 95.8281 312.878 95.966 313.015C96.1039 313.153 96.1814 313.34 96.1814 313.535C96.1814 313.73 96.1039 313.917 95.966 314.055C95.8281 314.193 95.641 314.27 95.4459 314.27H95.0708ZM101.323 314.226C101.128 314.226 100.94 314.149 100.803 314.011C100.665 313.873 100.587 313.686 100.587 313.491C100.587 313.296 100.665 313.109 100.803 312.971C100.94 312.833 101.128 312.756 101.323 312.756H101.69C101.885 312.756 102.072 312.833 102.21 312.971C102.348 313.109 102.426 313.296 102.426 313.491C102.426 313.686 102.348 313.873 102.21 314.011C102.072 314.149 101.885 314.226 101.69 314.226H101.315H101.323ZM107.574 314.182C107.379 314.182 107.192 314.105 107.054 313.967C106.916 313.829 106.839 313.642 106.839 313.447C106.839 313.252 106.916 313.065 107.054 312.927C107.192 312.789 107.379 312.712 107.574 312.712H107.949C108.145 312.712 108.332 312.789 108.47 312.927C108.607 313.065 108.685 313.252 108.685 313.447C108.685 313.642 108.607 313.829 108.47 313.967C108.332 314.105 108.145 314.182 107.949 314.182H107.574ZM113.826 314.138C113.631 314.138 113.444 314.061 113.306 313.923C113.168 313.785 113.091 313.598 113.091 313.403C113.091 313.208 113.168 313.021 113.306 312.883C113.444 312.745 113.631 312.668 113.826 312.668H114.201C114.396 312.668 114.583 312.745 114.721 312.883C114.859 313.021 114.937 313.208 114.937 313.403C114.937 313.598 114.859 313.785 114.721 313.923C114.583 314.061 114.396 314.138 114.201 314.138H113.826ZM120.078 314.101C119.883 314.101 119.696 314.024 119.558 313.886C119.42 313.748 119.342 313.561 119.342 313.366C119.342 313.171 119.42 312.984 119.558 312.846C119.696 312.708 119.883 312.631 120.078 312.631H120.453C120.648 312.631 120.835 312.708 120.973 312.846C121.111 312.984 121.188 313.171 121.188 313.366C121.188 313.561 121.111 313.748 120.973 313.886C120.835 314.024 120.648 314.101 120.453 314.101H120.078ZM126.33 314.057C126.135 314.057 125.947 313.98 125.81 313.842C125.672 313.704 125.594 313.517 125.594 313.322C125.594 313.127 125.672 312.94 125.81 312.802C125.947 312.664 126.135 312.587 126.33 312.587H126.705C126.9 312.587 127.087 312.664 127.225 312.802C127.363 312.94 127.44 313.127 127.44 313.322C127.44 313.517 127.363 313.704 127.225 313.842C127.087 313.98 126.9 314.057 126.705 314.057H126.33ZM132.581 314.013C132.386 314.013 132.199 313.936 132.061 313.798C131.923 313.66 131.846 313.473 131.846 313.278C131.846 313.083 131.923 312.896 132.061 312.758C132.199 312.62 132.386 312.543 132.581 312.543H132.956C133.152 312.543 133.339 312.62 133.477 312.758C133.614 312.896 133.692 313.083 133.692 313.278C133.692 313.473 133.614 313.66 133.477 313.798C133.339 313.936 133.152 314.013 132.956 314.013H132.581ZM138.833 313.969C138.638 313.969 138.451 313.892 138.313 313.754C138.175 313.616 138.098 313.429 138.098 313.234C138.098 313.039 138.175 312.852 138.313 312.714C138.451 312.576 138.638 312.499 138.833 312.499H139.208C139.403 312.499 139.59 312.576 139.728 312.714C139.866 312.852 139.944 313.039 139.944 313.234C139.944 313.429 139.866 313.616 139.728 313.754C139.59 313.892 139.403 313.969 139.208 313.969H138.833ZM145.085 313.925C144.89 313.925 144.703 313.847 144.565 313.71C144.427 313.572 144.349 313.385 144.349 313.19C144.349 312.995 144.427 312.808 144.565 312.67C144.703 312.532 144.89 312.455 145.085 312.455H145.46C145.655 312.455 145.842 312.532 145.98 312.67C146.118 312.808 146.196 312.995 146.196 313.19C146.196 313.385 146.118 313.572 145.98 313.71C145.842 313.847 145.655 313.925 145.46 313.925H145.085ZM151.337 313.888C151.142 313.888 150.954 313.811 150.817 313.673C150.679 313.535 150.601 313.348 150.601 313.153C150.601 312.958 150.679 312.771 150.817 312.633C150.954 312.495 151.142 312.418 151.337 312.418H151.704C151.899 312.418 152.087 312.495 152.224 312.633C152.362 312.771 152.44 312.958 152.44 313.153C152.44 313.348 152.362 313.535 152.224 313.673C152.087 313.811 151.899 313.888 151.704 313.888H151.337ZM157.588 313.844C157.393 313.844 157.206 313.767 157.068 313.629C156.93 313.491 156.853 313.304 156.853 313.109C156.853 312.914 156.93 312.727 157.068 312.589C157.206 312.451 157.393 312.374 157.588 312.374H157.956C158.151 312.374 158.338 312.451 158.476 312.589C158.614 312.727 158.692 312.914 158.692 313.109C158.692 313.304 158.614 313.491 158.476 313.629C158.338 313.767 158.151 313.844 157.956 313.844H157.588ZM163.84 313.8C163.645 313.8 163.458 313.722 163.32 313.585C163.182 313.447 163.105 313.26 163.105 313.065C163.105 312.87 163.182 312.683 163.32 312.545C163.458 312.407 163.645 312.33 163.84 312.33H164.215C164.41 312.33 164.597 312.407 164.735 312.545C164.873 312.683 164.951 312.87 164.951 313.065C164.951 313.26 164.873 313.447 164.735 313.585C164.597 313.722 164.41 313.8 164.215 313.8H163.84Z" fill="black"/>
<path d="M26.3015 326.467C26.1064 326.467 25.9194 326.389 25.7814 326.252C25.6435 326.114 25.566 325.927 25.566 325.732C25.566 325.537 25.6435 325.35 25.7814 325.212C25.9194 325.074 26.1064 324.997 26.3015 324.997H26.6693C26.8643 324.997 27.0514 325.074 27.1893 325.212C27.3273 325.35 27.4048 325.537 27.4048 325.732C27.4048 325.927 27.3273 326.114 27.1893 326.252C27.0514 326.389 26.8643 326.467 26.6693 326.467H26.2942H26.3015ZM32.5533 326.423C32.3582 326.423 32.1711 326.345 32.0332 326.207C31.8953 326.07 31.8178 325.883 31.8178 325.688C31.8178 325.493 31.8953 325.306 32.0332 325.168C32.1711 325.03 32.3582 324.952 32.5533 324.952H32.921C33.1161 324.952 33.3032 325.03 33.4411 325.168C33.579 325.306 33.6565 325.493 33.6565 325.688C33.6565 325.883 33.579 326.07 33.4411 326.207C33.3032 326.345 33.1161 326.423 32.921 326.423H32.5459H32.5533ZM38.805 326.379C38.61 326.379 38.4229 326.301 38.2849 326.163C38.147 326.025 38.0695 325.838 38.0695 325.644C38.0695 325.449 38.147 325.262 38.2849 325.124C38.4229 324.986 38.61 324.908 38.805 324.908H39.1801C39.3752 324.908 39.5623 324.986 39.7002 325.124C39.8381 325.262 39.9156 325.449 39.9156 325.644C39.9156 325.838 39.8381 326.025 39.7002 326.163C39.5623 326.301 39.3752 326.379 39.1801 326.379H38.805ZM45.0568 326.335C44.8617 326.335 44.6746 326.257 44.5367 326.119C44.3988 325.981 44.3213 325.794 44.3213 325.599C44.3213 325.404 44.3988 325.217 44.5367 325.08C44.6746 324.942 44.8617 324.864 45.0568 324.864H45.4319C45.627 324.864 45.814 324.942 45.952 325.08C46.0899 325.217 46.1674 325.404 46.1674 325.599C46.1674 325.794 46.0899 325.981 45.952 326.119C45.814 326.257 45.627 326.335 45.4319 326.335H45.0568ZM51.3085 326.298C51.1135 326.298 50.9264 326.22 50.7885 326.082C50.6505 325.945 50.573 325.758 50.573 325.563C50.573 325.368 50.6505 325.181 50.7885 325.043C50.9264 324.905 51.1135 324.827 51.3085 324.827H51.6836C51.8787 324.827 52.0658 324.905 52.2037 325.043C52.3417 325.181 52.4191 325.368 52.4191 325.563C52.4191 325.758 52.3417 325.945 52.2037 326.082C52.0658 326.22 51.8787 326.298 51.6836 326.298H51.3085ZM57.5603 326.254C57.3652 326.254 57.1781 326.176 57.0402 326.038C56.9023 325.9 56.8248 325.713 56.8248 325.519C56.8248 325.324 56.9023 325.137 57.0402 324.999C57.1781 324.861 57.3652 324.783 57.5603 324.783H57.9354C58.1305 324.783 58.3175 324.861 58.4555 324.999C58.5934 325.137 58.6709 325.324 58.6709 325.519C58.6709 325.713 58.5934 325.9 58.4555 326.038C58.3175 326.176 58.1305 326.254 57.9354 326.254H57.5603ZM63.8121 326.21C63.617 326.21 63.4299 326.132 63.292 325.994C63.154 325.856 63.0766 325.669 63.0766 325.474C63.0766 325.279 63.154 325.092 63.292 324.955C63.4299 324.817 63.617 324.739 63.8121 324.739H64.1872C64.3822 324.739 64.5693 324.817 64.7072 324.955C64.8452 325.092 64.9227 325.279 64.9227 325.474C64.9227 325.669 64.8452 325.856 64.7072 325.994C64.5693 326.132 64.3822 326.21 64.1872 326.21H63.8121ZM70.0638 326.165C69.8687 326.165 69.6817 326.088 69.5437 325.95C69.4058 325.812 69.3283 325.625 69.3283 325.43C69.3283 325.235 69.4058 325.048 69.5437 324.91C69.6817 324.773 69.8687 324.695 70.0638 324.695H70.4389C70.634 324.695 70.8211 324.773 70.959 324.91C71.0969 325.048 71.1744 325.235 71.1744 325.43C71.1744 325.625 71.0969 325.812 70.959 325.95C70.8211 326.088 70.634 326.165 70.4389 326.165H70.0638ZM76.3156 326.121C76.1205 326.121 75.9334 326.044 75.7955 325.906C75.6576 325.768 75.5801 325.581 75.5801 325.386C75.5801 325.191 75.6576 325.004 75.7955 324.866C75.9334 324.728 76.1205 324.651 76.3156 324.651H76.6907C76.8857 324.651 77.0728 324.728 77.2107 324.866C77.3487 325.004 77.4262 325.191 77.4262 325.386C77.4262 325.581 77.3487 325.768 77.2107 325.906C77.0728 326.044 76.8857 326.121 76.6907 326.121H76.3156ZM82.5673 326.121C82.3723 326.121 82.1852 326.044 82.0472 325.906C81.9093 325.768 81.8318 325.581 81.8318 325.386C81.8318 325.191 81.9093 325.004 82.0472 324.866C82.1852 324.728 82.3723 324.651 82.5673 324.651H82.9424C83.1375 324.651 83.3246 324.728 83.4625 324.866C83.6004 325.004 83.6779 325.191 83.6779 325.386C83.6779 325.581 83.6004 325.768 83.4625 325.906C83.3246 326.044 83.1375 326.121 82.9424 326.121H82.5673ZM88.8191 326.077C88.624 326.077 88.4369 326 88.299 325.862C88.1611 325.724 88.0836 325.537 88.0836 325.342C88.0836 325.147 88.1611 324.96 88.299 324.822C88.4369 324.684 88.624 324.607 88.8191 324.607H89.1942C89.3892 324.607 89.5763 324.684 89.7143 324.822C89.8522 324.96 89.9297 325.147 89.9297 325.342C89.9297 325.537 89.8522 325.724 89.7143 325.862C89.5763 326 89.3892 326.077 89.1942 326.077H88.8191ZM95.0708 326.033C94.8758 326.033 94.6887 325.956 94.5508 325.818C94.4128 325.68 94.3353 325.493 94.3353 325.298C94.3353 325.103 94.4128 324.916 94.5508 324.778C94.6887 324.64 94.8758 324.563 95.0708 324.563H95.4459C95.641 324.563 95.8281 324.64 95.966 324.778C96.1039 324.916 96.1814 325.103 96.1814 325.298C96.1814 325.493 96.1039 325.68 95.966 325.818C95.8281 325.956 95.641 326.033 95.4459 326.033H95.0708ZM101.323 325.989C101.128 325.989 100.94 325.912 100.803 325.774C100.665 325.636 100.587 325.449 100.587 325.254C100.587 325.059 100.665 324.872 100.803 324.734C100.94 324.596 101.128 324.519 101.323 324.519H101.698C101.893 324.519 102.08 324.596 102.218 324.734C102.356 324.872 102.433 325.059 102.433 325.254C102.433 325.449 102.356 325.636 102.218 325.774C102.08 325.912 101.893 325.989 101.698 325.989H101.323ZM107.574 325.945C107.379 325.945 107.192 325.867 107.054 325.73C106.916 325.592 106.839 325.405 106.839 325.21C106.839 325.015 106.916 324.828 107.054 324.69C107.192 324.552 107.379 324.475 107.574 324.475H107.949C108.145 324.475 108.332 324.552 108.47 324.69C108.607 324.828 108.685 325.015 108.685 325.21C108.685 325.405 108.607 325.592 108.47 325.73C108.332 325.867 108.145 325.945 107.949 325.945H107.574ZM113.826 325.901C113.631 325.901 113.444 325.823 113.306 325.685C113.168 325.548 113.091 325.361 113.091 325.166C113.091 324.971 113.168 324.784 113.306 324.646C113.444 324.508 113.631 324.43 113.826 324.43H114.201C114.396 324.43 114.583 324.508 114.721 324.646C114.859 324.784 114.937 324.971 114.937 325.166C114.937 325.361 114.859 325.548 114.721 325.685C114.583 325.823 114.396 325.901 114.201 325.901H113.826ZM120.078 325.864C119.883 325.864 119.696 325.787 119.558 325.649C119.42 325.511 119.342 325.324 119.342 325.129C119.342 324.934 119.42 324.747 119.558 324.609C119.696 324.471 119.883 324.394 120.078 324.394H120.446C120.641 324.394 120.828 324.471 120.966 324.609C121.104 324.747 121.181 324.934 121.181 325.129C121.181 325.324 121.104 325.511 120.966 325.649C120.828 325.787 120.641 325.864 120.446 325.864H120.071H120.078ZM126.33 325.82C126.135 325.82 125.947 325.742 125.81 325.605C125.672 325.467 125.594 325.28 125.594 325.085C125.594 324.89 125.672 324.703 125.81 324.565C125.947 324.427 126.135 324.35 126.33 324.35H126.705C126.9 324.35 127.087 324.427 127.225 324.565C127.363 324.703 127.44 324.89 127.44 325.085C127.44 325.28 127.363 325.467 127.225 325.605C127.087 325.742 126.9 325.82 126.705 325.82H126.33ZM132.581 325.776C132.386 325.776 132.199 325.698 132.061 325.561C131.923 325.423 131.846 325.236 131.846 325.041C131.846 324.846 131.923 324.659 132.061 324.521C132.199 324.383 132.386 324.305 132.581 324.305H132.956C133.152 324.305 133.339 324.383 133.477 324.521C133.614 324.659 133.692 324.846 133.692 325.041C133.692 325.236 133.614 325.423 133.477 325.561C133.339 325.698 133.152 325.776 132.956 325.776H132.581ZM138.833 325.732C138.638 325.732 138.451 325.654 138.313 325.516C138.175 325.379 138.098 325.192 138.098 324.997C138.098 324.802 138.175 324.615 138.313 324.477C138.451 324.339 138.638 324.261 138.833 324.261H139.208C139.403 324.261 139.59 324.339 139.728 324.477C139.866 324.615 139.944 324.802 139.944 324.997C139.944 325.192 139.866 325.379 139.728 325.516C139.59 325.654 139.403 325.732 139.208 325.732H138.833ZM145.085 325.688C144.89 325.688 144.703 325.61 144.565 325.472C144.427 325.334 144.349 325.147 144.349 324.952C144.349 324.757 144.427 324.57 144.565 324.433C144.703 324.295 144.89 324.217 145.085 324.217H145.453C145.648 324.217 145.835 324.295 145.973 324.433C146.111 324.57 146.188 324.757 146.188 324.952C146.188 325.147 146.111 325.334 145.973 325.472C145.835 325.61 145.648 325.688 145.453 325.688H145.078H145.085ZM151.337 325.651C151.142 325.651 150.954 325.573 150.817 325.436C150.679 325.298 150.601 325.111 150.601 324.916C150.601 324.721 150.679 324.534 150.817 324.396C150.954 324.258 151.142 324.181 151.337 324.181H151.704C151.899 324.181 152.087 324.258 152.224 324.396C152.362 324.534 152.44 324.721 152.44 324.916C152.44 325.111 152.362 325.298 152.224 325.436C152.087 325.573 151.899 325.651 151.704 325.651H151.337ZM157.588 325.607C157.393 325.607 157.206 325.529 157.068 325.391C156.93 325.254 156.853 325.067 156.853 324.872C156.853 324.677 156.93 324.49 157.068 324.352C157.206 324.214 157.393 324.136 157.588 324.136H157.964C158.159 324.136 158.346 324.214 158.484 324.352C158.622 324.49 158.699 324.677 158.699 324.872C158.699 325.067 158.622 325.254 158.484 325.391C158.346 325.529 158.159 325.607 157.964 325.607H157.588ZM163.84 325.563C163.645 325.563 163.458 325.485 163.32 325.347C163.182 325.209 163.105 325.022 163.105 324.827C163.105 324.632 163.182 324.445 163.32 324.308C163.458 324.17 163.645 324.092 163.84 324.092H164.215C164.41 324.092 164.597 324.17 164.735 324.308C164.873 324.445 164.951 324.632 164.951 324.827C164.951 325.022 164.873 325.209 164.735 325.347C164.597 325.485 164.41 325.563 164.215 325.563H163.84Z" fill="black"/>
<path d="M156.493 97.7704C155.523 96.6051 154.314 95.6623 152.947 95.0061C153.603 89.5232 153.807 83.9958 153.558 78.4795C153.411 75.333 153.114 72.1987 152.668 69.0767C152.311 65.9828 151.708 62.9222 150.866 59.9238C150.474 58.5066 149.877 57.1543 149.093 55.9098C148.255 54.6747 147.063 54.7703 145.717 54.9541C144.289 55.1407 142.891 55.5164 141.562 56.0715C140.437 56.5347 138.877 57.1081 138.215 58.2035C137.553 59.2989 137.995 60.9531 138.215 62.2029C138.473 63.7467 138.789 65.2832 139.135 66.8124C139.804 69.753 140.606 72.6937 141.385 75.6344C143.048 81.8466 144.673 88.1323 144.989 94.5577C142.337 96.7848 140.409 99.7511 139.451 103.078C138.954 104.86 138.856 106.73 139.162 108.554C139.468 110.378 140.172 112.113 141.223 113.635C143.43 116.576 147.328 118.333 150.932 117.539C154.727 116.716 157.588 113.327 158.677 109.607C159.291 107.603 159.413 105.482 159.032 103.422C158.652 101.361 157.781 99.4228 156.493 97.7704ZM147.034 94.1607C146.446 83.6036 142.481 73.6274 140.488 63.2836C140.356 62.6219 140.238 61.9602 140.128 61.2986C140.047 60.806 139.708 59.8283 139.922 59.343C140.135 58.8578 140.9 58.6079 141.304 58.4094C141.99 58.0602 142.704 57.7676 143.437 57.5345C143.952 57.3728 144.467 57.2331 144.997 57.1228C145.63 56.9295 146.291 56.8401 146.953 56.8582C147.358 56.9317 147.321 56.939 147.556 57.314C147.725 57.5862 147.878 57.8685 148.012 58.1594C148.337 58.8495 148.613 59.562 148.836 60.2914C149.618 62.997 150.186 65.76 150.535 68.5547C150.976 71.4954 151.27 74.4361 151.447 77.3768C151.77 83.0162 151.613 88.6729 150.976 94.2856C149.687 93.9544 148.341 93.9118 147.034 94.1607Z" fill="#4839A3"/>
<path d="M152.947 95.0061C153.603 89.5232 153.807 83.9958 153.558 78.4795C153.411 75.333 153.114 72.1987 152.668 69.0767C152.311 65.9828 151.708 62.9222 150.866 59.9238C150.474 58.5066 149.877 57.1543 149.093 55.9098C148.927 55.6417 148.705 55.4124 148.442 55.2374C148.18 55.0623 147.882 54.9457 147.571 54.8953C147.598 55.6351 147.537 56.3756 147.387 57.1008L147.556 57.3581C147.725 57.6303 147.878 57.9126 148.012 58.2035C148.337 58.8936 148.613 59.6061 148.836 60.3355C149.618 63.0411 150.186 65.8041 150.535 68.5988C150.976 71.5395 151.27 74.4802 151.447 77.4209C151.77 83.0603 151.613 88.717 150.976 94.3298C150.493 94.2116 150.001 94.1304 149.505 94.0872C149.439 94.5577 149.38 95.0208 149.314 95.484C150.62 95.877 151.831 96.5336 152.872 97.4132C153.913 98.2928 154.763 99.3767 155.369 100.598C155.975 101.819 156.323 103.151 156.393 104.512C156.463 105.873 156.252 107.234 155.775 108.511C155.297 109.787 154.563 110.952 153.617 111.934C152.671 112.915 151.533 113.692 150.275 114.217C149.016 114.741 147.664 115.002 146.3 114.983C144.937 114.964 143.592 114.665 142.349 114.106C142.047 113.97 141.727 113.876 141.4 113.826C142.5 115.261 143.975 116.363 145.662 117.012C147.35 117.661 149.184 117.83 150.962 117.502C154.757 116.679 157.618 113.29 158.706 109.57C159.313 107.568 159.43 105.45 159.046 103.394C158.662 101.337 157.788 99.4037 156.5 97.7556C155.527 96.5949 154.315 95.6572 152.947 95.0061Z" fill="#6C5AE0"/>
<path d="M26.8752 288.216C26.6801 288.216 26.4931 288.138 26.3551 288.001C26.2172 287.863 26.1397 287.676 26.1397 287.481C26.1397 287.286 26.2172 287.099 26.3551 286.961C26.4931 286.823 26.6801 286.746 26.8752 286.746H27.2429C27.438 286.746 27.6251 286.823 27.763 286.961C27.901 287.099 27.9784 287.286 27.9784 287.481C27.9784 287.676 27.901 287.863 27.763 288.001C27.6251 288.138 27.438 288.216 27.2429 288.216H26.8752ZM33.127 288.172C32.9319 288.172 32.7448 288.094 32.6069 287.956C32.4689 287.819 32.3915 287.632 32.3915 287.437C32.3915 287.242 32.4689 287.055 32.6069 286.917C32.7448 286.779 32.9319 286.701 33.127 286.701H33.4947C33.6898 286.701 33.8768 286.779 34.0148 286.917C34.1527 287.055 34.2302 287.242 34.2302 287.437C34.2302 287.632 34.1527 287.819 34.0148 287.956C33.8768 288.094 33.6898 288.172 33.4947 288.172H33.127ZM39.3787 288.128C39.1836 288.128 38.9966 288.05 38.8586 287.912C38.7207 287.774 38.6432 287.588 38.6432 287.393C38.6432 287.198 38.7207 287.011 38.8586 286.873C38.9966 286.735 39.1836 286.657 39.3787 286.657H39.7538C39.9489 286.657 40.136 286.735 40.2739 286.873C40.4118 287.011 40.4893 287.198 40.4893 287.393C40.4893 287.588 40.4118 287.774 40.2739 287.912C40.136 288.05 39.9489 288.128 39.7538 288.128H39.3787ZM45.6305 288.091C45.4354 288.091 45.2483 288.013 45.1104 287.876C44.9725 287.738 44.895 287.551 44.895 287.356C44.895 287.161 44.9725 286.974 45.1104 286.836C45.2483 286.698 45.4354 286.621 45.6305 286.621H45.9982C46.1933 286.621 46.3804 286.698 46.5183 286.836C46.6562 286.974 46.7337 287.161 46.7337 287.356C46.7337 287.551 46.6562 287.738 46.5183 287.876C46.3804 288.013 46.1933 288.091 45.9982 288.091H45.6305ZM51.8749 288.047C51.6798 288.047 51.4927 287.969 51.3548 287.832C51.2169 287.694 51.1394 287.507 51.1394 287.312C51.1394 287.117 51.2169 286.93 51.3548 286.792C51.4927 286.654 51.6798 286.576 51.8749 286.576H52.2426C52.4377 286.576 52.6248 286.654 52.7627 286.792C52.9006 286.93 52.9781 287.117 52.9781 287.312C52.9781 287.507 52.9006 287.694 52.7627 287.832C52.6248 287.969 52.4377 288.047 52.2426 288.047H51.8822H51.8749ZM58.1266 288.003C57.9316 288.003 57.7445 287.925 57.6066 287.787C57.4686 287.65 57.3911 287.463 57.3911 287.268C57.3911 287.073 57.4686 286.886 57.6066 286.748C57.7445 286.61 57.9316 286.532 58.1266 286.532H58.4944C58.6894 286.532 58.8765 286.61 59.0145 286.748C59.1524 286.886 59.2299 287.073 59.2299 287.268C59.2299 287.463 59.1524 287.65 59.0145 287.787C58.8765 287.925 58.6894 288.003 58.4944 288.003H58.1193H58.1266ZM64.3784 287.959C64.1833 287.959 63.9962 287.881 63.8583 287.743C63.7204 287.605 63.6429 287.418 63.6429 287.223C63.6429 287.028 63.7204 286.841 63.8583 286.704C63.9962 286.566 64.1833 286.488 64.3784 286.488H64.7461C64.9412 286.488 65.1283 286.566 65.2662 286.704C65.4042 286.841 65.4816 287.028 65.4816 287.223C65.4816 287.418 65.4042 287.605 65.2662 287.743C65.1283 287.881 64.9412 287.959 64.7461 287.959H64.3857H64.3784ZM70.6301 287.914C70.4351 287.914 70.248 287.837 70.1101 287.699C69.9721 287.561 69.8946 287.374 69.8946 287.179C69.8946 286.984 69.9721 286.797 70.1101 286.659C70.248 286.522 70.4351 286.444 70.6301 286.444H70.9979C71.193 286.444 71.38 286.522 71.518 286.659C71.6559 286.797 71.7334 286.984 71.7334 287.179C71.7334 287.374 71.6559 287.561 71.518 287.699C71.38 287.837 71.193 287.914 70.9979 287.914H70.6228H70.6301ZM76.8893 287.87C76.6942 287.87 76.5071 287.793 76.3692 287.655C76.2312 287.517 76.1538 287.33 76.1538 287.135C76.1538 286.94 76.2312 286.753 76.3692 286.615C76.5071 286.478 76.6942 286.4 76.8893 286.4H77.257C77.4521 286.4 77.6391 286.478 77.7771 286.615C77.915 286.753 77.9925 286.94 77.9925 287.135C77.9925 287.33 77.915 287.517 77.7771 287.655C77.6391 287.793 77.4521 287.87 77.257 287.87H76.8893ZM83.141 287.826C82.9459 287.826 82.7589 287.749 82.6209 287.611C82.483 287.473 82.4055 287.286 82.4055 287.091C82.4055 286.896 82.483 286.709 82.6209 286.571C82.7589 286.433 82.9459 286.356 83.141 286.356H83.5088C83.7038 286.356 83.8909 286.433 84.0288 286.571C84.1668 286.709 84.2443 286.896 84.2443 287.091C84.2443 287.286 84.1668 287.473 84.0288 287.611C83.8909 287.749 83.7038 287.826 83.5088 287.826H83.1337H83.141ZM89.3928 287.782C89.1977 287.782 89.0106 287.705 88.8727 287.567C88.7348 287.429 88.6573 287.242 88.6573 287.047C88.6573 286.852 88.7348 286.665 88.8727 286.527C89.0106 286.389 89.1977 286.312 89.3928 286.312H89.7605C89.9556 286.312 90.1427 286.389 90.2806 286.527C90.4185 286.665 90.496 286.852 90.496 287.047C90.496 287.242 90.4185 287.429 90.2806 287.567C90.1427 287.705 89.9556 287.782 89.7605 287.782H89.3928ZM95.6445 287.738C95.4495 287.738 95.2624 287.661 95.1244 287.523C94.9865 287.385 94.909 287.198 94.909 287.003C94.909 286.808 94.9865 286.621 95.1244 286.483C95.2624 286.345 95.4495 286.268 95.6445 286.268H96.0123C96.2073 286.268 96.3944 286.345 96.5324 286.483C96.6703 286.621 96.7478 286.808 96.7478 287.003C96.7478 287.198 96.6703 287.385 96.5324 287.523C96.3944 287.661 96.2073 287.738 96.0123 287.738H95.6372H95.6445ZM101.896 287.694C101.701 287.694 101.514 287.616 101.376 287.479C101.238 287.341 101.161 287.154 101.161 286.959C101.161 286.764 101.238 286.577 101.376 286.439C101.514 286.301 101.701 286.224 101.896 286.224H102.264C102.459 286.224 102.646 286.301 102.784 286.439C102.922 286.577 103 286.764 103 286.959C103 287.154 102.922 287.341 102.784 287.479C102.646 287.616 102.459 287.694 102.264 287.694H101.896ZM108.148 287.65C107.953 287.65 107.766 287.572 107.628 287.435C107.49 287.297 107.413 287.11 107.413 286.915C107.413 286.72 107.49 286.533 107.628 286.395C107.766 286.257 107.953 286.18 108.148 286.18H108.516C108.711 286.18 108.898 286.257 109.036 286.395C109.174 286.533 109.251 286.72 109.251 286.915C109.251 287.11 109.174 287.297 109.036 287.435C108.898 287.572 108.711 287.65 108.516 287.65H108.141H108.148ZM114.4 287.65C114.205 287.65 114.018 287.572 113.88 287.435C113.742 287.297 113.664 287.11 113.664 286.915C113.664 286.72 113.742 286.533 113.88 286.395C114.018 286.257 114.205 286.18 114.4 286.18H114.768C114.963 286.18 115.15 286.257 115.288 286.395C115.426 286.533 115.503 286.72 115.503 286.915C115.503 287.11 115.426 287.297 115.288 287.435C115.15 287.572 114.963 287.65 114.768 287.65H114.4ZM120.652 287.606C120.456 287.606 120.269 287.528 120.131 287.39C119.994 287.253 119.916 287.066 119.916 286.871C119.916 286.676 119.994 286.489 120.131 286.351C120.269 286.213 120.456 286.135 120.652 286.135H121.019C121.214 286.135 121.401 286.213 121.539 286.351C121.677 286.489 121.755 286.676 121.755 286.871C121.755 287.066 121.677 287.253 121.539 287.39C121.401 287.528 121.214 287.606 121.019 287.606H120.644H120.652ZM126.903 287.562C126.708 287.562 126.521 287.484 126.383 287.346C126.245 287.208 126.168 287.021 126.168 286.826C126.168 286.631 126.245 286.444 126.383 286.307C126.521 286.169 126.708 286.091 126.903 286.091H127.271C127.466 286.091 127.653 286.169 127.791 286.307C127.929 286.444 128.007 286.631 128.007 286.826C128.007 287.021 127.929 287.208 127.791 287.346C127.653 287.484 127.466 287.562 127.271 287.562H126.903ZM133.155 287.517C132.96 287.517 132.773 287.44 132.635 287.302C132.497 287.164 132.42 286.977 132.42 286.782C132.42 286.587 132.497 286.4 132.635 286.263C132.773 286.125 132.96 286.047 133.155 286.047H133.523C133.718 286.047 133.905 286.125 134.043 286.263C134.181 286.4 134.258 286.587 134.258 286.782C134.258 286.977 134.181 287.164 134.043 287.302C133.905 287.44 133.718 287.517 133.523 287.517H133.148H133.155ZM139.407 287.473C139.212 287.473 139.025 287.396 138.887 287.258C138.749 287.12 138.671 286.933 138.671 286.738C138.671 286.543 138.749 286.356 138.887 286.218C139.025 286.081 139.212 286.003 139.407 286.003H139.775C139.97 286.003 140.157 286.081 140.295 286.218C140.433 286.356 140.51 286.543 140.51 286.738C140.51 286.933 140.433 287.12 140.295 287.258C140.157 287.396 139.97 287.473 139.775 287.473H139.407ZM145.659 287.437C145.464 287.437 145.276 287.359 145.139 287.221C145.001 287.083 144.923 286.896 144.923 286.701C144.923 286.506 145.001 286.319 145.139 286.182C145.276 286.044 145.464 285.966 145.659 285.966H146.026C146.221 285.966 146.408 286.044 146.546 286.182C146.684 286.319 146.762 286.506 146.762 286.701C146.762 286.896 146.684 287.083 146.546 287.221C146.408 287.359 146.221 287.437 146.026 287.437H145.651H145.659ZM151.91 287.393C151.715 287.393 151.528 287.315 151.39 287.177C151.252 287.039 151.175 286.852 151.175 286.657C151.175 286.462 151.252 286.275 151.39 286.138C151.528 286 151.715 285.922 151.91 285.922H152.278C152.473 285.922 152.66 286 152.798 286.138C152.936 286.275 153.014 286.462 153.014 286.657C153.014 286.852 152.936 287.039 152.798 287.177C152.66 287.315 152.473 287.393 152.278 287.393H151.91ZM158.162 287.348C157.967 287.348 157.78 287.271 157.642 287.133C157.504 286.995 157.427 286.808 157.427 286.613C157.427 286.418 157.504 286.231 157.642 286.093C157.78 285.956 157.967 285.878 158.162 285.878H158.53C158.725 285.878 158.912 285.956 159.05 286.093C159.188 286.231 159.265 286.418 159.265 286.613C159.265 286.808 159.188 286.995 159.05 287.133C158.912 287.271 158.725 287.348 158.53 287.348H158.155H158.162ZM164.414 287.304C164.219 287.304 164.032 287.227 163.894 287.089C163.756 286.951 163.678 286.764 163.678 286.569C163.678 286.374 163.756 286.187 163.894 286.049C164.032 285.911 164.219 285.834 164.414 285.834H164.782C164.977 285.834 165.164 285.911 165.302 286.049C165.44 286.187 165.517 286.374 165.517 286.569C165.517 286.764 165.44 286.951 165.302 287.089C165.164 287.227 164.977 287.304 164.782 287.304H164.414Z" fill="black"/>
<path d="M354.791 54.4687L354.202 53.2998L353.048 51.0061C352.908 50.7732 352.683 50.6042 352.42 50.5355C352.158 50.4668 351.879 50.5038 351.643 50.6385C351.413 50.7804 351.246 51.0055 351.178 51.267C351.109 51.5284 351.144 51.8062 351.275 52.0427L352.43 54.3364C352.621 54.7113 352.805 55.0716 352.996 55.4686L353.283 56.0273C353.327 56.1229 353.371 56.2184 353.423 56.3066C353.54 56.5046 353.701 56.6731 353.894 56.7992C354.043 56.8893 354.215 56.9369 354.39 56.9369C354.565 56.9369 354.737 56.8893 354.886 56.7992C355.034 56.713 355.157 56.5896 355.242 56.4413C355.327 56.2929 355.372 56.1248 355.372 55.9538C355.293 55.4213 355.094 54.9135 354.791 54.4687V54.4687Z" fill="#E4A111"/>
<path d="M318.214 120.509C318.074 120.279 317.849 120.113 317.589 120.046C317.328 119.979 317.051 120.016 316.817 120.149C316.317 120.421 315.831 120.744 315.346 121.046L313.875 121.95C313.639 122.087 313.467 122.313 313.398 122.577C313.328 122.841 313.366 123.122 313.504 123.358C313.641 123.594 313.867 123.765 314.131 123.835C314.395 123.905 314.676 123.866 314.912 123.729L316.383 122.817C316.876 122.516 317.383 122.229 317.854 121.906C318.079 121.765 318.246 121.549 318.325 121.296C318.392 121.029 318.353 120.747 318.214 120.509V120.509Z" fill="#FFEDE3"/>
<path d="M291.604 150.136C291.432 149.635 291.231 149.144 291.001 148.666C290.81 148.232 290.611 147.806 290.405 147.379C290.001 146.519 289.567 145.681 289.103 144.858C288.965 144.623 288.74 144.453 288.477 144.384C288.214 144.316 287.934 144.354 287.698 144.49C287.467 144.631 287.299 144.856 287.231 145.118C287.162 145.38 287.198 145.658 287.331 145.894C287.787 146.703 288.213 147.534 288.611 148.372C288.809 148.784 289 149.195 289.184 149.614C289.272 149.806 289.353 149.989 289.434 150.18C289.434 150.225 289.523 150.394 289.53 150.416C289.596 150.585 289.67 150.754 289.751 150.916C289.876 151.126 290.073 151.284 290.306 151.361C290.538 151.438 290.791 151.428 291.017 151.333C291.243 151.238 291.427 151.064 291.534 150.844C291.642 150.625 291.667 150.373 291.604 150.136Z" fill="#FFEDE3"/>
<path d="M176.366 106.026C175.52 105.291 174.623 104.644 173.747 103.968C173.547 103.782 173.285 103.675 173.012 103.666C172.74 103.666 172.479 103.774 172.286 103.965C172.093 104.157 171.984 104.416 171.982 104.688C171.98 104.825 172.005 104.96 172.057 105.087C172.109 105.213 172.186 105.328 172.284 105.423C173.233 106.158 174.159 106.894 175.137 107.629C175.252 107.698 175.38 107.743 175.513 107.76C175.646 107.778 175.781 107.768 175.91 107.732C176.117 107.668 176.299 107.542 176.432 107.372C176.591 107.179 176.672 106.935 176.659 106.686C176.647 106.437 176.542 106.202 176.366 106.026V106.026Z" fill="#FFEDE3"/>
<path d="M310.97 130.11V129.949C310.953 129.896 310.934 129.844 310.911 129.794L310.801 129.515C310.72 129.324 310.646 129.125 310.565 128.934C310.538 128.802 310.474 128.68 310.381 128.581C310.294 128.47 310.177 128.385 310.043 128.339C309.928 128.267 309.796 128.226 309.661 128.221C309.528 128.188 309.389 128.188 309.256 128.221C308.995 128.293 308.773 128.465 308.638 128.699L308.535 128.942C308.484 129.119 308.484 129.308 308.535 129.486L308.771 130.081L308.888 130.375C308.932 130.502 308.986 130.625 309.05 130.743L309.138 130.875C309.275 131.09 309.483 131.249 309.727 131.323H309.992C310.122 131.33 310.251 131.302 310.367 131.243C310.45 131.222 310.527 131.179 310.587 131.118C310.693 131.048 310.78 130.951 310.837 130.838L310.94 130.603C310.989 130.444 310.999 130.275 310.97 130.11V130.11Z" fill="#F8BE9D"/>
<path d="M311.705 137.205C311.656 137.068 311.616 136.928 311.588 136.786C311.588 136.661 311.588 136.529 311.588 136.404C311.589 136.268 311.564 136.133 311.514 136.007C311.464 135.88 311.389 135.765 311.293 135.668C311.095 135.478 310.832 135.37 310.558 135.367C310.283 135.369 310.019 135.477 309.822 135.668C309.635 135.868 309.528 136.13 309.521 136.404C309.515 136.672 309.534 136.94 309.58 137.205C309.608 137.39 309.655 137.573 309.719 137.749C309.803 138.004 309.911 138.25 310.043 138.484C310.131 138.63 310.232 138.768 310.345 138.896C310.43 138.986 310.526 139.065 310.631 139.131C310.714 139.178 310.8 139.217 310.889 139.249C311.068 139.293 311.254 139.293 311.433 139.249C311.597 139.201 311.747 139.113 311.867 138.991C311.986 138.873 312.072 138.726 312.117 138.565C312.301 138.028 311.926 137.624 311.705 137.205Z" fill="#F8BE9D"/>
<path d="M311.043 144.821C311.091 144.688 311.111 144.546 311.102 144.405C311.092 144.264 311.054 144.126 310.989 144.001C310.924 143.875 310.834 143.764 310.724 143.675C310.614 143.586 310.487 143.52 310.351 143.482C310.214 143.444 310.072 143.434 309.932 143.454C309.791 143.474 309.657 143.522 309.536 143.596C309.415 143.67 309.311 143.768 309.23 143.884C309.149 144 309.093 144.131 309.065 144.27C308.915 144.747 308.823 145.241 308.793 145.74C308.778 145.941 308.778 146.142 308.793 146.343C308.793 146.446 308.793 146.541 308.793 146.644C308.797 146.778 308.817 146.912 308.852 147.041C308.89 147.163 308.939 147.281 308.999 147.394L309.153 147.6L309.352 147.754C309.544 147.86 309.767 147.899 309.984 147.865C310.154 147.846 310.314 147.78 310.448 147.674C310.624 147.551 310.75 147.368 310.801 147.159C310.831 147.031 310.851 146.901 310.859 146.769C310.863 146.706 310.863 146.642 310.859 146.578C310.859 146.46 310.859 146.336 310.859 146.218C310.857 146.024 310.869 145.829 310.896 145.637C310.922 145.361 310.971 145.088 311.043 144.821V144.821Z" fill="#F8BE9D"/>
<path d="M150.263 100.645C150.192 100.361 150.038 100.105 149.822 99.9097C149.731 99.8111 149.636 99.7178 149.535 99.6303C149.277 99.3959 148.99 99.1957 148.681 99.0348C148.065 98.7123 147.377 98.5481 146.681 98.557C146.407 98.5562 146.143 98.6616 145.945 98.851C145.801 98.9954 145.703 99.1795 145.663 99.3799C145.624 99.5802 145.645 99.7878 145.724 99.9762C145.802 100.165 145.936 100.325 146.106 100.438C146.277 100.55 146.477 100.61 146.681 100.608H147.027C147.209 100.645 147.389 100.697 147.564 100.762C147.726 100.836 147.881 100.925 148.027 101.027C148.2 101.167 148.358 101.325 148.498 101.498L148.336 101.292C148.451 101.472 148.604 101.625 148.784 101.74C148.959 101.836 149.157 101.88 149.355 101.865C149.554 101.851 149.744 101.779 149.902 101.659C150.043 101.558 150.15 101.417 150.211 101.255C150.286 101.061 150.304 100.849 150.263 100.645V100.645Z" fill="white"/>
<path d="M225.975 187.49C226.149 187.241 226.363 187.023 226.608 186.843C226.789 186.72 226.957 186.577 227.108 186.417C227.081 186.267 227.024 186.124 226.939 185.998C221.899 178.767 216.466 171.819 210.662 165.185C207.72 161.828 204.675 158.552 201.527 155.356C198.639 152.305 195.579 149.421 192.363 146.718C188.766 143.777 184.478 140.917 179.764 140.417C179.632 140.394 179.498 140.394 179.367 140.417C179.122 139.92 178.834 139.445 178.506 138.998C178.089 138.378 177.64 137.779 177.16 137.205C176.271 136.138 175.27 135.169 174.174 134.315C173.977 134.125 173.713 134.019 173.438 134.019C173.164 134.019 172.9 134.125 172.703 134.315C172.606 134.412 172.529 134.526 172.477 134.653C172.424 134.779 172.397 134.914 172.397 135.051C172.397 135.187 172.424 135.323 172.477 135.449C172.529 135.575 172.606 135.689 172.703 135.786C173.757 136.608 174.723 137.537 175.586 138.557C175.682 138.668 175.785 138.785 175.88 138.91C175.935 138.974 175.987 139.04 176.035 139.109V139.109L176.079 139.168C176.277 139.44 176.476 139.712 176.667 139.991C176.859 140.27 177.035 140.557 177.204 140.844C177.3 141.005 177.388 141.189 177.491 141.366C174.799 144.453 170.393 145.49 166.547 146.335C161.111 147.526 155.47 148.776 149.895 147.806C148.601 147.585 148.042 149.563 149.351 149.783C155.404 150.813 161.45 149.541 167.356 148.232C171.769 147.254 176.373 145.894 179.337 142.299C179.458 142.364 179.591 142.404 179.727 142.417C183.721 142.843 187.567 145.475 190.627 147.923C193.778 150.53 196.772 153.321 199.593 156.282C205.574 162.324 211.222 168.688 216.509 175.345C219.51 179.134 222.391 183.013 225.152 186.983C225.236 187.129 225.356 187.252 225.5 187.34C225.643 187.429 225.807 187.48 225.975 187.49V187.49Z" fill="black"/>
<path d="M75.0579 248.612C64.1062 246.929 57.0675 237.269 53.5003 227.513C52.3928 224.406 51.4597 221.24 50.7054 218.029C50.3892 216.75 48.4107 217.294 48.7196 218.581C51.4336 229.645 55.8466 241.32 66.1068 247.488C68.6804 249.057 71.5363 250.109 74.5136 250.583C75.8081 250.789 76.3597 248.811 75.0579 248.612Z" fill="black"/>
<path d="M224.887 254.457C213.119 253.178 205.19 243.157 198.482 234.46C197.688 233.431 195.901 234.46 196.71 235.497C203.94 244.87 212.273 255.141 224.887 256.508C226.196 256.655 226.196 254.597 224.887 254.457Z" fill="black"/>
<path d="M317.567 140.285C317.146 143.456 315.56 146.357 313.117 148.423C310.411 150.732 306.844 151.416 303.556 152.599C300.6 153.631 297.919 155.323 295.715 157.547C293.602 159.789 291.834 162.334 290.471 165.097C289.78 166.428 289.162 167.795 288.574 169.177C288.441 169.12 288.299 169.087 288.154 169.082C285.39 169.045 282.67 168.39 280.193 167.163C277.716 165.937 275.545 164.171 273.842 161.995C273.106 161.024 271.76 162.259 272.224 163.237C275.077 169.192 278.762 175.838 285.992 176.808H286.11C286.163 177.06 286.307 177.282 286.514 177.433C291.347 181.109 290.03 187.998 288.132 192.813C287.162 195.291 285.926 197.452 283.44 198.694C281.16 199.669 278.667 200.039 276.203 199.768C276.056 199.759 275.908 199.779 275.769 199.827C272.203 197.723 268.792 195.37 265.56 192.784C263.92 191.534 262.294 190.255 260.684 188.961C259.867 188.306 259.058 187.637 258.249 186.976C257.48 186.224 256.637 185.552 255.734 184.969C254.998 184.572 253.807 185.461 254.432 186.27C255.085 187.035 255.825 187.721 256.638 188.314C257.484 189.049 258.345 189.718 259.205 190.409C260.863 191.747 262.532 193.061 264.214 194.35C267.551 197.027 271.075 199.462 274.761 201.635H274.827C270.547 215.089 261.5 226.344 251.799 236.445C249.004 239.386 246.135 242.209 243.252 245.039C242.311 245.973 243.767 247.421 244.723 246.51C255.02 236.401 265.42 225.925 272.246 213.045C274.155 209.448 275.728 205.683 276.945 201.797V201.797C279.62 201.985 282.299 201.479 284.72 200.326C287.551 198.856 288.986 196.246 290.118 193.372C292.376 187.623 293.156 180.242 287.86 175.941C288.085 175.817 288.257 175.616 288.346 175.375C290.471 169.611 292.803 163.502 297.172 159.047C299.488 156.768 302.33 155.094 305.446 154.172C308.756 153.084 312.102 152.114 314.758 149.761C317.461 147.317 319.181 143.972 319.597 140.351C319.781 138.977 317.722 138.991 317.567 140.285Z" fill="black"/>
<path d="M111.075 178.904C105.015 192.401 99.4985 206.125 94.5266 220.073C93.1242 224.028 91.766 227.996 90.4519 231.976C90.0327 233.233 92.0185 233.777 92.4304 232.52C97.0297 218.61 102.178 204.887 107.876 191.35C109.494 187.512 111.159 183.695 112.87 179.896C113.377 178.749 111.612 177.705 111.075 178.904Z" fill="black"/>
<path d="M2.2065 346.36H0L0.04413 259.647H175.093V261.853H2.25063L2.2065 346.36Z" fill="black"/>
<path d="M100.366 259.934C98.7451 257.173 97.3481 254.287 96.1888 251.303C95.1182 248.287 94.3783 245.164 93.9823 241.988C93.8205 240.695 91.7758 240.673 91.9302 241.988C92.3295 245.347 93.0915 248.653 94.2029 251.847C95.2606 255.064 96.7448 258.125 98.6159 260.948C98.7505 261.181 98.9718 261.35 99.2312 261.419C99.4905 261.487 99.7666 261.451 99.9987 261.316C100.231 261.182 100.4 260.96 100.469 260.701C100.538 260.442 100.501 260.166 100.366 259.934V259.934Z" fill="black"/>
<path d="M391.103 299.89H287.875V296.95H388.161V220.323L268.031 219.867L268.039 216.927L391.103 217.39V299.89Z" fill="black"/>
</g>
<defs>
<clipPath id="clip0_1_38430">
<rect width="471" height="347" fill="white" transform="translate(0 0.5)"/>
</clipPath>
</defs>
</svg>
